<?xml version="1.0" standalone="no"?>
<!DOCTYPE svg PUBLIC "-//W3C//DTD SVG 1.1//EN" "http://www.w3.org/Graphics/SVG/1.1/DTD/svg11.dtd" >
<svg xmlns="http://www.w3.org/2000/svg" xmlns:xlink="http://www.w3.org/1999/xlink" version="1.1">
<metadata>
Created by FontForge 20170731 at Fri May 26 15:27:49 2017
 By Aleksey,,,
</metadata>
<defs>
<font id="Clinton-BoldItalic" horiz-adv-x="284" >
  <font-face 
    font-family="Clinton"
    font-weight="700"
    font-style="italic"
    font-stretch="normal"
    units-per-em="1000"
    panose-1="0 0 0 0 0 0 0 0 0 0"
    ascent="750"
    descent="-250"
    x-height="594"
    cap-height="795"
    bbox="-228 -213 1269 994"
    underline-thickness="50"
    underline-position="-150"
    unicode-range="U+000D-FB04"
  />
<missing-glyph 
 />
    <glyph glyph-name="ff" unicode="ff" horiz-adv-x="733" 
d="M690 537q-4 -23 -7.5 -45.5t-8.5 -45.5h-129q-20 -112 -40 -223t-40 -223h-145l79 446h-149q-20 -112 -40 -223t-40 -223h-145l79 446h-66l17 91h66l10 56q9 46 34 83q10 15 25.5 30t36.5 27t48 19t62 7q20 -2 41 -6q18 -5 41 -13t48 -25q22 31 63 56t109 25q25 -1 51 -8
q23 -6 50.5 -19.5t55.5 -37.5l-47 -84q-23 13 -44.5 23.5t-51.5 10.5q-29 0 -49 -13t-26 -46q-5 -25 -8 -43t-8 -42h128zM430 620q-17 10 -36 17t-42 7q-29 0 -49.5 -13t-26.5 -46q-2 -12 -3 -16.5t-1.5 -7.5t-1.5 -7.5t-3 -16.5h149z" />
    <glyph glyph-name="fi" unicode="fi" horiz-adv-x="535" 
d="M550 537l-96 -537h-147l79 446h-146q-20 -112 -40.5 -223t-40.5 -223h-144l79 446h-66l17 91h66l16 93q8 46 34 83q11 15 26 30t36 27t48.5 19t62.5 7q25 -1 51 -8q23 -6 50.5 -19.5t55.5 -37.5l-47 -84q-23 13 -45 23.5t-51 10.5t-49.5 -13t-25.5 -46q-5 -25 -8 -43
t-8 -42h293z" />
    <glyph glyph-name="fl" unicode="fl" horiz-adv-x="663" 
d="M488 125q9 -12 26.5 -14t36.5 0t37 7.5t27 8.5l-19 -103q-19 -12 -40.5 -18.5t-39.5 -9.5q-22 -4 -43 -4q-9 0 -25 1.5t-33.5 6.5t-35 15.5t-30 29t-17.5 46t2 67.5q20 112 39 220t39 220q5 30 -12.5 49.5t-47.5 19.5q-17 0 -31.5 -4t-25.5 -13t-17.5 -23t-9.5 -28
q-2 -12 -3.5 -19t-2.5 -12t-2.5 -12t-3.5 -19h85l-17 -91h-85q-20 -112 -40 -223t-40 -223h-144l79 446h-66l16 91h66q1 6 2.5 14.5t4.5 19.5t7.5 30.5t14 42.5t25.5 47.5t41 45.5q25 20 49.5 31.5t46.5 17t41 7t32 1.5q8 0 26 -1t39.5 -7t44 -18.5t40.5 -35.5
q23 -29 30.5 -68.5t-0.5 -86.5q-11 -63 -19.5 -109.5t-14.5 -81.5t-10.5 -62t-9 -52l-9 -50t-10.5 -57q-2 -8 -1.5 -19t8.5 -21z" />
    <glyph glyph-name="ffi" unicode="ffi" horiz-adv-x="840" 
d="M845 537l-96 -537h-147l79 446h-146q-20 -112 -40 -223t-40 -223h-145l79 446h-149q-20 -112 -40 -223t-40 -223h-145l79 446h-66l17 91h66l10 56q9 46 34 83q10 15 25.5 30t36.5 27t48 19t62 7q20 -2 41 -6q18 -5 41 -13t48 -25q22 31 63 56t109 25q25 -1 51 -8
q23 -6 50.5 -19.5t55.5 -37.5l-47 -84q-23 13 -44.5 23.5t-51.5 10.5q-29 0 -49 -13t-26 -46q-5 -25 -8 -43t-8 -42h293zM420 620q-17 10 -36 17t-42 7q-29 0 -49.5 -13t-26.5 -46q-2 -12 -3 -16.5t-1.5 -7.5t-1.5 -7.5t-3 -16.5h149z" />
    <glyph glyph-name="ffl" unicode="ffl" horiz-adv-x="957" 
d="M782 125q9 -12 26.5 -14t36.5 0t37 7.5t27 8.5l-19 -103q-20 -12 -41.5 -18.5t-39.5 -9.5q-21 -4 -42 -4q-9 0 -25 1.5t-34 6.5t-35.5 15.5t-30 29t-17.5 46t2 67.5q20 112 39 220t39 220q5 30 -12.5 49.5t-46.5 19.5q-30 0 -54 -19q-25 -20 -31 -49q-2 -12 -3.5 -19
t-2 -12t-2 -12t-3.5 -19h85l-17 -91h-85q-20 -112 -40 -223t-40 -223h-144l79 446h-149q-9 -50 -15.5 -88t-12.5 -70.5t-11 -62t-11 -62.5t-13 -72.5t-16 -90.5h-145l79 446h-66l17 91h66l10 56q9 46 34 83q10 15 25.5 30t36.5 27t48 19t62 7q21 -1 45 -7q20 -5 46 -16
t52 -31q35 42 86 65.5t112 23.5q51 0 88.5 -16.5t60.5 -45.5t31 -68.5t0 -86.5q-11 -63 -19.5 -109.5t-15 -81.5t-11 -62t-9 -52l-9 -50t-9.5 -57q-2 -8 -1.5 -19t8.5 -21zM411 577q2 11 4.5 21t6.5 21q-19 10 -38 17.5t-43 7.5q-29 0 -49.5 -13t-25.5 -46q-2 -12 -3 -16.5
t-1.5 -7.5t-1.5 -7.5t-3 -16.5h147q1 10 2 13.5t1.5 6.5t1 6.5t2.5 13.5z" />
    <glyph glyph-name=".notdef" 
 />
    <glyph glyph-name=".null" horiz-adv-x="0" 
 />
    <glyph glyph-name="nonmarkingreturn" unicode="&#xd;" 
 />
    <glyph glyph-name="NULL" horiz-adv-x="0" 
 />
    <glyph glyph-name="NULL" horiz-adv-x="0" 
 />
    <glyph glyph-name="space" unicode=" " 
 />
    <glyph glyph-name="exclam" unicode="!" horiz-adv-x="256" 
d="M231 261h-139l95 528h139l-95 -528v0zM184 0h-139l31 172h139l-31 -172v0z" />
    <glyph glyph-name="quotedbl" unicode="&#x22;" horiz-adv-x="435" 
d="M117 709h-52l25 142h125l-25 -142l-99 -107h-46zM317 709h-52l25 142h125l-25 -142l-99 -107h-46z" />
    <glyph glyph-name="numbersign" unicode="#" horiz-adv-x="868" 
d="M843 474h-189l-49 -160h180l-14 -102h-197l-65 -212h-127l65 212h-129l-65 -212h-126l64 212h-146l14 102h163l49 160h-155l13 101h173l67 220h127l-67 -220h129l67 220h126l-66 -220h171zM478 314l49 160h-129l-49 -160h129z" />
    <glyph glyph-name="dollar" unicode="$" horiz-adv-x="818" 
d="M465 470q52 -14 107 -31t98 -43.5t68 -66t18 -99.5q-5 -36 -27.5 -76.5t-65.5 -75.5t-107.5 -59t-153.5 -27l-15 -88h-98l17 93q-54 9 -101.5 29t-82.5 50t-55 68.5t-18 85.5l170 20q2 -48 38 -78.5t88 -41.5l38 211q-51 13 -101.5 29t-90 42t-61.5 65.5t-15 99.5
q6 49 35 88.5t74 68t102 45t117 18.5l16 88h97l-16 -93q109 -16 173 -72.5t71 -135.5l-169 -21q-2 3 -5.5 17t-15.5 31t-34 33t-59 24zM290 587q-2 -20 6 -34.5t24 -26.5t39 -21.5t50 -17.5l33 186q-74 -2 -111 -28.5t-41 -57.5zM579 228q3 20 -7 35t-29 26.5t-46 20.5
t-58 17l-36 -202q31 1 61 8t55 20t41 32t19 43z" />
    <glyph glyph-name="percent" unicode="%" horiz-adv-x="844" 
d="M257 799q48 0 80 -13q17 -7 30.5 -16t23.5 -21q20 -22 28 -55q9 -30 4 -68q-3 -34 -19 -68q-15 -31 -41 -54q-24 -23 -62 -37q-39 -14 -86 -14q-41 0 -71 13q-33 12 -55 34q-23 20 -34 54q-12 30 -7 72q4 39 23 71q18 33 46 55q30 24 64 35q36 12 76 12zM112 -5l-62 56
q46 45 90 90l88 90q45 45 87.5 91t86.5 94q44 47 87 93.5t85 94.5q42 47 84 94.5t84 95.5q8 -8 15.5 -15t14.5 -13q15 -12 31 -28q-91 -90 -179 -181.5t-176 -186.5q-43 -46 -85 -92t-84 -93t-83.5 -94t-83.5 -96zM221 514q48 0 77 31q14 16 22.5 36t10.5 46q3 23 0 44
q-3 18 -13 35q-11 15 -27 24q-18 9 -43 9q-48 0 -75 -30q-28 -29 -34 -82q-6 -54 16 -83q21 -30 66 -30zM644 338q47 0 79 -13q34 -14 54 -37t28 -55q9 -30 4 -68t-19 -68q-13 -30 -40 -54q-26 -23 -63 -37t-84 -14q-39 0 -72 12q-35 13 -56 34q-22 22 -34 54q-11 32 -6 73
q4 39 23 71q18 32 46 54q29 24 64 36q36 12 76 12zM607 53q48 0 77 31q28 31 34 82q3 23 0 44q-3 18 -13 35q-11 15 -28 24t-43 9q-47 0 -74 -30q-27 -32 -33 -82q-6 -54 15 -83q21 -30 65 -30z" />
    <glyph glyph-name="ampersand" unicode="&#x26;" horiz-adv-x="832" 
d="M610 0l-53 60q-28 -17 -54.5 -30t-55 -21.5t-60 -12.5t-67.5 -4q-48 0 -96.5 12.5t-86 40.5t-58.5 72.5t-13 107.5q6 46 31 82.5t54.5 63.5t55.5 43t33 21q-5 6 -19.5 21.5t-29.5 37t-25 48.5t-6 56q5 38 25 73.5t53 63t78.5 44t101.5 16.5q52 0 93 -16t68.5 -42
t40.5 -60t9 -70q-5 -43 -32 -77.5t-57.5 -59.5t-55.5 -38.5t-27 -14.5l138 -168q27 33 37 77.5t6 86.5h144q0 -25 -7.5 -67.5t-34.5 -93.5q-16 -30 -33 -53t-32 -39q19 -22 35 -41t32.5 -37.5t34 -38t38.5 -43.5h-205zM481 148q-44 53 -84 101t-85 101q-30 -16 -53 -40
t-35.5 -50.5t-12 -53t16.5 -48.5q17 -23 45 -36t62 -15t72 8t74 33zM310 608q-2 -12 3 -27t13.5 -30.5t20 -30t22.5 -26.5q19 12 39 25.5t36.5 28.5t28.5 31.5t14 34.5q5 38 -19.5 58.5t-62.5 20.5q-37 0 -63.5 -21.5t-31.5 -63.5z" />
    <glyph glyph-name="quotesingle" unicode="'" horiz-adv-x="235" 
d="M117 709h-52l25 142h125l-25 -142l-99 -107h-46l72 107v0z" />
    <glyph glyph-name="parenleft" unicode="(" horiz-adv-x="415" 
d="M449 795q-54 -52 -101 -118q-40 -57 -79 -136.5t-55 -179.5q-8 -50 -8 -95.5t5 -86t14.5 -75.5t20.5 -64q26 -69 63 -123h-139q-35 63 -58 136q-10 31 -18.5 67t-13 75.5t-4.5 81.5t7 86q7 43 20 84.5t30 80.5t36.5 73.5t39.5 64.5q46 70 99 129h141z" />
    <glyph glyph-name="parenright" unicode=")" horiz-adv-x="415" 
d="M331 795q33 -59 56 -129q20 -60 31 -138t-3 -165q-7 -44 -20.5 -86t-31 -81.5t-37.5 -75.5t-40 -67q-47 -73 -102 -136h-139q55 54 103 123q41 59 79.5 140t55.5 181q16 99 4 179t-34 137q-26 66 -63 118h141z" />
    <glyph glyph-name="asterisk" unicode="*" horiz-adv-x="375" 
d="M241 710q5 -10 10.5 -19.5t10.5 -20.5q9 -20 20 -40l-63 -36q-5 11 -10.5 22t-10.5 22q-9 21 -20 43l-72 -87l-51 36q8 10 17 20t17 20q9 11 17.5 20.5t17.5 19.5q-10 5 -19.5 8.5t-20.5 7.5q-10 4 -19.5 7.5t-19.5 8.5l36 62q9 -5 18.5 -9.5t18.5 -9.5l39 -18
q1 11 2 22.5t3 23.5q2 11 3.5 23t3.5 23h78q-3 -11 -5.5 -23t-4.5 -23q-2 -12 -4.5 -23.5t-4.5 -22.5q11 5 22 9t22 9t22.5 9.5t23.5 9.5l13 -62q-11 -5 -22.5 -8.5t-22.5 -7.5t-22.5 -7.5t-22.5 -8.5z" />
    <glyph glyph-name="plus" unicode="+" horiz-adv-x="422" 
d="M396 328l-19 -104h-106l-20 -115h-120l21 115h-107l19 104h106l21 116h120l-21 -116h106v0z" />
    <glyph glyph-name="comma" unicode="," horiz-adv-x="235" 
d="M117 0h-52l25 142h125l-25 -142l-99 -107h-46l72 107v0z" />
    <glyph glyph-name="hyphen" unicode="-" horiz-adv-x="386" 
d="M341 224h-296l18 104h296l-18 -104v0z" />
    <glyph glyph-name="period" unicode="." horiz-adv-x="225" 
d="M165 0h-125l25 142h125l-25 -142v0z" />
    <glyph glyph-name="slash" unicode="/" horiz-adv-x="847" 
d="M876 794l-667 -794h-164l666 794h165v0z" />
    <glyph glyph-name="zero" unicode="0" horiz-adv-x="636" 
d="M389 643q68 0 115.5 -25.5t75.5 -69.5t37 -103.5t0 -127.5t-33 -127.5t-63 -103.5t-94 -69t-125 -25q-57 0 -103.5 22t-78 64t-45.5 102t-4 137q9 73 38 133t72 103t96.5 66.5t111.5 23.5zM318 131q66 0 106 51t51 136q5 39 2 73t-16 59.5t-36 40.5t-58 15
q-64 0 -103 -50.5t-50 -137.5q-11 -88 15 -137.5t89 -49.5z" />
    <glyph glyph-name="one" unicode="1" horiz-adv-x="416" 
d="M129 0l86 485q-14 -11 -34.5 -24.5t-47.5 -25.5q-27 -11 -49.5 -16.5t-38.5 -7.5l23 129q17 5 41.5 13.5t53.5 25.5q28 16 47.5 32t32.5 30h158l-113 -641h-159z" />
    <glyph glyph-name="two" unicode="2" horiz-adv-x="624" 
d="M45 0q1 7 1.5 12.5t1 12t1.5 15.5t3 24q6 61 37.5 107.5t74 82t91.5 62.5t90.5 50.5t70 46t31.5 48.5q3 29 -22 48.5t-63 19.5q-28 0 -48.5 -9t-35.5 -24t-25 -33.5t-16 -37.5l-135 18q15 52 42.5 91t63.5 64.5t78 38t86 12.5q56 0 98 -15t69 -41t38.5 -61t7.5 -74
q-5 -44 -29.5 -78.5t-59.5 -63t-76.5 -52.5t-80 -47t-69 -46t-44.5 -49l338 1l-22 -123h-497z" />
    <glyph glyph-name="three" unicode="3" horiz-adv-x="675" 
d="M309 307q85 0 132 32t53 86q5 48 -22 79.5t-78 31.5q-31 0 -54.5 -10t-40.5 -26t-27 -35.5t-14 -38.5l-141 16q18 54 48 93t67.5 64.5t81.5 37.5t89 12q54 0 98 -15.5t73.5 -43t43.5 -64.5t10 -80q-5 -48 -25 -80t-43 -51.5t-43 -29.5t-25 -13q6 -3 29 -12.5t47.5 -30.5
t42 -56t11.5 -89q-5 -48 -31.5 -90.5t-68.5 -74t-95.5 -49.5t-111.5 -18q-55 0 -104 16.5t-85.5 48t-57.5 76t-20 101.5l140 20q-3 -30 6.5 -56t29 -44.5t46.5 -29.5t59 -11q30 0 55.5 9t44.5 25t30.5 37.5t14.5 46.5q7 63 -34 95t-147 32z" />
    <glyph glyph-name="four" unicode="4" horiz-adv-x="697" 
d="M354 -147l27 149h-336l22 124l463 515h116l-91 -515h110l-23 -124h-109l-27 -149h-152v0zM214 127h214l53 297l-267 -297v0z" />
    <glyph glyph-name="five" unicode="5" horiz-adv-x="675" 
d="M230 304q15 12 32 23.5t37.5 21t46 15t58.5 5.5q53 0 97.5 -17t75 -49t45 -78t7.5 -104q-7 -55 -33.5 -104t-68 -85.5t-96 -57.5t-117.5 -21q-59 0 -106 17t-81.5 48.5t-55 76t-26.5 98.5l153 22q0 -27 9 -51.5t26 -43t41.5 -29.5t55.5 -11q34 0 62.5 13t49 34.5
t33.5 48.5t16 55q4 32 -3.5 58.5t-24.5 46t-41.5 30t-55.5 10.5q-33 0 -58.5 -10t-43.5 -24.5t-30 -29.5t-19 -25h-39.5t-35 -0.5t-35 -0.5h-39.5q28 115 59.5 227.5t58.5 227.5q111 0 225.5 -0.5t225.5 -0.5l-21 -123q-78 1 -162 1.5t-162 1.5l-60 -216v0z" />
    <glyph glyph-name="six" unicode="6" horiz-adv-x="685" 
d="M654 267q-6 -60 -34 -110.5t-71.5 -87t-99.5 -57t-118 -20.5q-82 0 -136.5 31t-86 83t-41.5 120.5t-3 142.5q7 72 29.5 148t64 137.5t104 101t149.5 39.5q68 0 115 -19.5t77 -49t46 -64t22 -64.5l-134 -17q-1 15 -9.5 32.5t-25 33t-40.5 26t-57 10.5q-44 0 -76 -21.5
t-53 -56.5t-33 -80t-16 -92q27 42 77.5 68t113.5 26q58 0 104 -19.5t77 -54t45.5 -82t9.5 -104.5zM348 121q31 0 58.5 11t49.5 30.5t36 46.5t17 58q2 25 -3.5 51.5t-21 48.5t-41.5 36.5t-65 14.5q-33 0 -60.5 -13t-47.5 -34.5t-32.5 -48.5t-15.5 -55q-3 -27 5 -53.5t25 -47
t41.5 -33t54.5 -12.5z" />
    <glyph glyph-name="seven" unicode="7" horiz-adv-x="678" 
d="M495 518h-335l22 123h554l-510 -788h-181l450 665v0z" />
    <glyph glyph-name="eight" unicode="8" horiz-adv-x="699" 
d="M671 242q-5 -60 -35 -106.5t-75.5 -78.5t-102.5 -48.5t-115 -16.5q-60 0 -113.5 16.5t-93.5 49t-61.5 80.5t-16.5 111q3 42 23 73t44.5 52t47 33t31.5 18q-9 6 -24.5 19t-30.5 32t-25 44.5t-7 57.5q3 47 29.5 86.5t67 68.5t91 45t102.5 16t100.5 -15t84.5 -43t56 -67.5
t16 -88.5q-3 -34 -17 -60t-32 -45t-35.5 -31.5t-26.5 -18.5q7 -5 27.5 -17.5t41.5 -34t36.5 -54t12.5 -77.5zM514 245q2 26 -6.5 51t-26 45t-44.5 32t-61 12t-63 -11t-50.5 -29.5t-34.5 -42.5t-15 -50q-2 -24 5.5 -49t24.5 -46t44.5 -34t66.5 -13q36 0 65 13t49.5 32.5
t32 43.5t13.5 46zM270 566q-2 -24 5.5 -44t22.5 -34t36 -22t47 -8q27 0 50 8.5t40 23.5t27 34.5t12 41.5q4 45 -23 78.5t-89 33.5q-30 0 -53 -9.5t-39.5 -25.5t-25.5 -36t-10 -41z" />
    <glyph glyph-name="nine" unicode="9" horiz-adv-x="642" 
d="M48 367q6 60 33.5 110.5t70.5 87t98.5 56.5t117.5 20q82 0 136 -30.5t85 -82.5t41 -119.5t3 -141.5q-7 -72 -29 -147t-63 -136.5t-103 -100.5t-149 -39q-68 0 -114.5 19.5t-76.5 49t-45.5 63.5t-21.5 64l133 16q1 -15 9.5 -32.5t24.5 -32.5t40 -25.5t56 -10.5
q44 0 75.5 21.5t52.5 56t32.5 79t16.5 91.5q-26 -42 -76 -68t-114 -26q-57 0 -103 19.5t-76.5 54t-45 81.5t-8.5 103zM351 513q-30 0 -58 -11t-49.5 -30.5t-35.5 -46t-17 -57.5q-2 -25 3.5 -51.5t21 -48.5t41.5 -36t64 -14q33 0 60 13t47.5 34t32.5 48t15 55q3 27 -5 53.5
t-24.5 46.5t-41 32.5t-54.5 12.5z" />
    <glyph glyph-name="colon" unicode=":" horiz-adv-x="235" 
d="M170 0h-125l25 142h125l-25 -142v0zM231 344h-125l26 142h125l-26 -142v0z" />
    <glyph glyph-name="semicolon" unicode=";" horiz-adv-x="235" 
d="M117 0l-72 -107h46l99 107l25 142h-125l-25 -142h52v0zM251 344h-125l25 142h125l-25 -142v0z" />
    <glyph glyph-name="less" unicode="&#x3c;" horiz-adv-x="523" 
d="M545 596l-27 -149l-277 -149l224 -151l-27 -147l-393 274l9 49l491 273v0z" />
    <glyph glyph-name="equal" unicode="=" horiz-adv-x="390" 
d="M81 335l16 85h300l-15 -85h-301v0zM45 131l15 86h301l-16 -86h-300v0z" />
    <glyph glyph-name="greater" unicode="&#x3e;" horiz-adv-x="523" 
d="M45 0l26 147l278 151l-224 149l26 149l394 -273l-9 -49l-491 -274v0z" />
    <glyph glyph-name="question" unicode="?" horiz-adv-x="609" 
d="M331 262h-140q10 56 29.5 93.5t43 63.5t48.5 45t46.5 38t37 41.5t20.5 57.5q5 37 -21 62t-75 25q-26 0 -48.5 -9t-40.5 -24.5t-29.5 -37t-15.5 -46.5l-141 17q16 52 45 91t68 64.5t85 38.5t97 13q63 0 108 -17t72.5 -44.5t38.5 -63.5t6 -74q-7 -50 -24 -82t-39.5 -55
t-48.5 -41t-50 -38.5t-43 -48t-29 -69.5zM286 0h-139l32 172h139z" />
    <glyph glyph-name="at" unicode="@" horiz-adv-x="1005" 
d="M566 795q100 0 181 -38q79 -37 134 -102q53 -64 77 -146q24 -83 14 -170q-4 -32 -11 -58.5t-18 -49.5q-21 -46 -51 -76q-33 -31 -68 -44q-38 -15 -78 -15q-41 0 -68 10q-28 9 -46 23q-17 13 -28 27q-5 8 -8.5 13t-5.5 9q-14 -17 -31 -31q-18 -15 -40 -26q-23 -12 -51 -18
q-25 -7 -62 -7q-32 0 -56 10q-27 9 -45 27t-27 43q-9 24 -6 55q6 44 31 72q24 25 56 43q16 8 31.5 13.5t30.5 8.5q16 4 27.5 6t19.5 4q43 9 78 15q17 3 33.5 6t33.5 7q2 17 -1 34q-3 20 -11 33q-8 14 -26 25q-16 10 -45 10q-25 0 -44 -9q-20 -8 -31 -21q-14 -14 -21 -29
q-8 -13 -11 -30l-110 9q4 19 11 35.5t17 32.5q21 33 49 56q32 24 68 37q38 13 84 13q41 0 76 -13q34 -12 60 -35q25 -24 37 -55q13 -31 8 -72l-10 -89l-6 -48q-6 -52 12 -83q17 -32 64 -32q29 0 45 8l13 6.5t8 4.5q16 10 28 27q5 8 10 17t9 19q8 20 12 40q2 11 3 20.5
t3 20.5q4 36 1.5 72t-13.5 72q-19 70 -65 128q-47 56 -116 91q-72 35 -162 35q-74 0 -152 -29q-74 -28 -137 -82q-62 -55 -105 -127q-43 -76 -52 -162q-11 -89 15 -163t76 -126q51 -54 118 -82q70 -29 145 -29q46 0 92 11q21 5 40.5 11t36.5 14t31.5 15.5t27.5 15.5t22.5 15
t17.5 12q5 -6 9 -12t8 -11t7.5 -10.5t8.5 -11.5q-19 -14 -47 -31q-28 -19 -68 -36q-20 -8 -42 -15.5t-46 -13.5q-50 -12 -105 -12q-86 0 -163 31q-78 31 -137 90q-60 61 -89 145q-30 85 -17 193q10 96 57 180q45 84 117 146q35 31 74 55.5t83 41.5q88 36 181 36zM539 215
q18 12 30 26t20 29t12.5 34t7.5 42q-17 -5 -33.5 -8.5t-34.5 -5.5q-35 -4 -67 -12q-31 -7 -52 -21q-21 -13 -24 -40q-3 -26 10 -42q13 -15 35 -21q21 -6 48 -1q26 4 48 20z" />
    <glyph glyph-name="A" unicode="A" horiz-adv-x="842" 
d="M35 0l435 795h142l195 -795h-170l-39 167l-304 -1l-89 -166h-170v0zM515 627l-179 -355h249l-70 355v0z" />
    <glyph glyph-name="B" unicode="B" horiz-adv-x="736" 
d="M709 202q-5 -40 -29 -76.5t-62.5 -64.5t-90.5 -44.5t-113 -16.5h-369l140 795h373q39 0 72 -17t55.5 -45t33.5 -65t5 -77q-8 -65 -51.5 -112t-106.5 -71q36 -12 65.5 -28t49 -39.5t27.5 -57t1 -81.5zM309 660l-36 -200h194q23 0 42 8t32.5 21.5t21.5 31.5t11 37
q2 18 -0.5 36.5t-11.5 33t-26 23.5t-42 9h-185zM560 234q3 20 -1 38.5t-14 33t-25 23t-35 8.5h-235l-37 -202h238q23 0 42 8t33 22t22.5 31.5t11.5 37.5z" />
    <glyph glyph-name="C" unicode="C" horiz-adv-x="870" 
d="M841 299q-21 -66 -55.5 -122.5t-86 -97.5t-120.5 -64t-158 -23q-80 0 -148 25.5t-116 76t-71.5 125.5t-12.5 174q9 84 43.5 157.5t91.5 128t133.5 86.5t168.5 32q80 0 143 -21.5t107.5 -60.5t70 -95t29.5 -125l-147 -17q-4 43 -18.5 79.5t-39.5 62t-61 40t-82 14.5
q-58 0 -105.5 -21.5t-82.5 -59t-56.5 -88.5t-27.5 -110q-7 -68 7 -120t43 -87.5t71 -53.5t92 -18q82 0 147 51t94 143z" />
    <glyph glyph-name="D" unicode="D" horiz-adv-x="797" 
d="M45 0l137 795h257q81 0 149 -29t115.5 -81.5t69.5 -125.5t10 -161t-53.5 -161t-103 -125.5t-137.5 -82t-156 -29.5h-288zM630 399q7 55 -3.5 104t-37.5 86t-70.5 58.5t-100.5 21.5h-99l-104 -543h130q55 0 104 23t87 61.5t62.5 87.5t31.5 101z" />
    <glyph glyph-name="E" unicode="E" horiz-adv-x="697" 
d="M319 666l-37 -205h351l-22 -124h-351l-37 -208h406l-23 -129h-561l141 795h562l-23 -129h-406z" />
    <glyph glyph-name="F" unicode="F" horiz-adv-x="668" 
d="M319 666l-37 -205h336l-22 -124h-336l-60 -337h-155l141 795h562l-23 -129h-406z" />
    <glyph glyph-name="G" unicode="G" horiz-adv-x="873" 
d="M853 394l-68 -394h-135l17 100q-14 -20 -38.5 -39.5t-56.5 -34.5t-71 -24.5t-82 -9.5q-80 0 -147.5 25.5t-115 76t-70 125.5t-10.5 174q10 84 45.5 157.5t92.5 128t134 86.5t170 32q79 0 142 -21.5t107 -60.5t69 -95t28 -125l-148 -17q-6 87 -56 141.5t-142 54.5
q-58 0 -106 -21.5t-83.5 -59t-57.5 -88.5t-29 -110q-8 -68 5 -120t42.5 -87.5t71.5 -53.5t92 -18q72 0 132 40t95 115h-172l21 123h324z" />
    <glyph glyph-name="H" unicode="H" horiz-adv-x="806" 
d="M873 795l-142 -795h-161l55 311h-364l-56 -311h-160l141 795h161l-64 -358h365l63 358h162v0z" />
    <glyph glyph-name="I" unicode="I" horiz-adv-x="293" 
d="M205 0h-160l141 795h161l-142 -795v0z" />
    <glyph glyph-name="J" unicode="J" horiz-adv-x="629" 
d="M98 182q26 -19 60.5 -34.5t88.5 -15.5q56 0 89 19.5t52.5 53.5t29.5 78t19 94l74 418h161l-88 -494q-12 -64 -34.5 -120.5t-61.5 -98.5t-98 -66t-143 -24q-35 0 -67 6.5t-59.5 17t-51 24t-39.5 27.5z" />
    <glyph glyph-name="K" unicode="K" horiz-adv-x="806" 
d="M45 0l142 795h160l-66 -376l369 376h206l-364 -355l253 -440h-193l-187 341l-117 -102l-42 -239h-161v0z" />
    <glyph glyph-name="L" unicode="L" horiz-adv-x="647" 
d="M622 126l-23 -126h-554l142 795h160l-119 -669h394z" />
    <glyph glyph-name="M" unicode="M" horiz-adv-x="962" 
d="M748 0l98 549l-304 -425h-86l-152 427l-98 -551h-161l141 795h187l157 -497l335 497h185l-141 -795h-161v0z" />
    <glyph glyph-name="N" unicode="N" horiz-adv-x="804" 
d="M895 795l-141 -795h-202l-232 641l-114 -641h-161l141 794h57t48.5 0.5t48.5 0.5h57l227 -623l111 623h160z" />
    <glyph glyph-name="O" unicode="O" horiz-adv-x="898" 
d="M513 800q95 0 166.5 -32t118 -86.5t66.5 -128t12 -157.5q-9 -91 -46.5 -165.5t-97 -127.5t-136.5 -82t-166 -29q-100 0 -172.5 32t-117.5 86.5t-63 128t-9 157.5q8 84 43.5 157.5t93.5 128t136.5 86.5t171.5 32zM444 117q57 0 103.5 22t80.5 59.5t55 88t27 108.5
t-3.5 109t-35.5 89t-68.5 60t-101.5 22q-56 0 -102.5 -21.5t-81 -59t-56.5 -88.5t-28 -111t6 -111t39.5 -88t69.5 -58t96 -21z" />
    <glyph glyph-name="P" unicode="P" horiz-adv-x="740" 
d="M45 0l140 795h321q63 0 111 -21t79.5 -57t45.5 -85t7 -106q-7 -56 -34.5 -104t-68.5 -83t-92.5 -55t-107.5 -20h-195l-47 -264h-159zM274 388h167q31 0 56.5 13.5t44.5 34t30.5 46t14.5 49.5q3 25 -3.5 50t-22 45t-39.5 32.5t-55 12.5h-143z" />
    <glyph glyph-name="Q" unicode="Q" horiz-adv-x="902" 
d="M875 396q-9 -91 -46 -165.5t-91 -122.5l87 -108h-175l-31 38q-39 -20 -87.5 -33t-100.5 -13q-100 0 -172.5 32t-117.5 86.5t-63.5 128t-9.5 157.5q8 84 43.5 157.5t93.5 128t136 86.5t171 32q95 0 166.5 -32t118 -86.5t67 -128t11.5 -157.5zM643 217q28 36 45 81.5
t22 96.5q6 58 -3.5 109t-35.5 89t-68.5 60t-101.5 22q-56 0 -102.5 -21.5t-81 -59t-56.5 -88.5t-28 -111t6 -111t39.5 -88t69.5 -58t96 -21q51 0 97 19l-119 150h167z" />
    <glyph glyph-name="R" unicode="R" horiz-adv-x="789" 
d="M724 0h-189l-142 265h-140l-47 -265h-161l142 795h304q62 0 110.5 -21t81 -57t47 -85t8.5 -106q-4 -41 -19.5 -78t-40 -67.5t-56 -54.5t-68.5 -39zM275 388h158q31 0 56 13.5t44 34t30 46t14 49.5q3 25 -4.5 50t-23.5 45t-40 32.5t-55 12.5h-129z" />
    <glyph glyph-name="S" unicode="S" horiz-adv-x="817" 
d="M382 -8q-67 0 -128 16.5t-107 47.5t-73 75t-25 99l170 20q1 -30 16 -53t39.5 -39.5t56.5 -25t66 -8.5q31 0 62.5 7t57 20t42.5 32.5t20 43.5q3 28 -16.5 46.5t-53.5 32t-78 24t-90 23t-89.5 29t-76 42t-49.5 63t-11 90.5q6 51 37.5 91.5t79 69.5t107.5 44.5t123 15.5
q72 0 129.5 -16t99 -44.5t65.5 -68t28 -85.5l-169 -21q-2 3 -7 21t-22 37.5t-49 35.5t-88 16q-39 0 -68 -7.5t-48.5 -19.5t-30 -27.5t-12.5 -31.5q-3 -29 16.5 -48.5t53.5 -34t78 -26.5t90 -25.5t89.5 -30.5t76.5 -42.5t50.5 -62t11.5 -87.5q-5 -37 -28.5 -79t-69 -77
t-114 -58.5t-162.5 -23.5z" />
    <glyph glyph-name="T" unicode="T" horiz-adv-x="698" 
d="M756 795l-22 -123h-274l-120 -672h-160l119 672h-274l22 123h709v0z" />
    <glyph glyph-name="U" unicode="U" horiz-adv-x="851" 
d="M918 795l-73 -407q-15 -82 -47 -154t-85 -126t-128.5 -85t-176.5 -31q-80 0 -146 32t-110.5 86.5t-63.5 126t-4 151.5l73 407h160l-73 -407q-9 -53 0.5 -99t34 -80.5t61 -54.5t80.5 -20q60 0 106 20.5t78.5 55.5t52 81t27.5 97l73 407h161z" />
    <glyph glyph-name="V" unicode="V" horiz-adv-x="697" 
d="M201 795l110 -608l321 608h171l-454 -795h-143l-176 795h171v0z" />
    <glyph glyph-name="W" unicode="W" horiz-adv-x="1156" 
d="M395 794h158l48 -262l134 262h158l-208 -370l67 -241l344 612h173l-475 -795h-142l-83 335l-194 -335h-141l-214 795h171l145 -612l144 241l-85 370v0z" />
    <glyph glyph-name="X" unicode="X" horiz-adv-x="877" 
d="M348 795l159 -302l255 302h174l-359 -403l231 -392h-176l-159 285l-251 -285h-177l357 392l-229 403h175v0z" />
    <glyph glyph-name="Y" unicode="Y" horiz-adv-x="651" 
d="M191 795l130 -390l270 390h171l-384 -515l-50 -280h-160l50 282l-198 513h171v0z" />
    <glyph glyph-name="Z" unicode="Z" horiz-adv-x="749" 
d="M48 108l549 564h-456l21 123h659l-20 -109l-545 -563h474l-23 -123h-677l18 108v0z" />
    <glyph glyph-name="bracketleft" unicode="[" 
d="M45 -55l160 896h174l-20 -111h-54l-120 -673h54l-20 -112h-174v0z" />
    <glyph glyph-name="backslash" unicode="\" horiz-adv-x="728" 
d="M183 795l318 -795h-153l-319 795h154v0z" />
    <glyph glyph-name="bracketright" unicode="]" 
d="M45 -55l20 112h54l120 673h-54l20 111h174l-160 -896h-174v0z" />
    <glyph glyph-name="asciicircum" unicode="^" horiz-adv-x="562" 
d="M278 873h99l144 -378l-111 1l-99 261l-180 -261l-108 -1l255 378v0z" />
    <glyph glyph-name="underscore" unicode="_" horiz-adv-x="430" 
d="M385 0h-340l19 109h340l-19 -109v0z" />
    <glyph glyph-name="a" unicode="a" horiz-adv-x="651" 
d="M424 92q-19 -21 -39.5 -39.5t-46.5 -32t-58 -21t-74 -7.5q-34 0 -63.5 12t-51 32t-34 46.5t-12.5 55.5q0 51 19 84t52.5 54t78.5 33.5t97 23.5t95 17.5t82 14.5q3 20 0 42t-15.5 40t-34.5 30t-56 12q-32 0 -53.5 -10.5t-36 -26t-23 -35t-13.5 -37.5l-66 6t-66 5
q13 45 37 83.5t58.5 67t79 44.5t99.5 16q50 0 94 -20t74.5 -53t45.5 -76t6 -90q-9 -49 -14 -76.5t-9 -48.5t-7.5 -42t-9.5 -56q-4 -20 5 -30t23 -12.5t29.5 0.5t24.5 9l-15 -84q-20 -15 -40 -23t-51 -8q-30 0 -50.5 11.5t-33.5 27.5t-19.5 33t-7.5 28zM193 171
q0 -27 15.5 -44.5t40 -23.5t54 -0.5t57.5 23.5q22 15 37.5 31t26.5 35t18 41.5t12 50.5q-42 -11 -88 -18.5t-84.5 -18.5t-63.5 -28.5t-25 -47.5z" />
    <glyph glyph-name="b" unicode="b" horiz-adv-x="733" 
d="M335 795l-59 -324q32 57 86.5 94t126.5 37q60 0 104.5 -24t72 -65.5t38.5 -97t4 -118.5q-8 -66 -33 -121.5t-63.5 -96.5t-87 -64t-103.5 -23q-41 0 -76 13.5t-62 34.5t-44.5 47t-22.5 52l-26 -139h-145l148 795h142zM244 297q-4 -39 2 -74t23 -61.5t44.5 -42t66.5 -15.5
q35 0 66.5 14t56 39t40.5 59t21 75q4 39 -3 73t-25 59.5t-46.5 40.5t-67.5 15q-35 0 -65.5 -14t-54 -38t-39 -57.5t-19.5 -72.5z" />
    <glyph glyph-name="c" unicode="c" horiz-adv-x="669" 
d="M340 103q63 0 106 39.5t61 99.5l116 -13q-13 -51 -38.5 -94.5t-63.5 -75t-88 -49.5t-113 -18q-65 0 -116.5 23t-87 64t-52 97t-11.5 121q6 63 32.5 118.5t68.5 97t98 65.5t120 24q59 0 106 -19t80.5 -52.5t53 -79.5t23.5 -99l-118 -10q-5 67 -41.5 108t-102.5 41
q-41 0 -72.5 -14.5t-54 -40.5t-35.5 -61.5t-17 -76.5q-3 -42 5 -77.5t27 -61.5t47.5 -41t66.5 -15z" />
    <glyph glyph-name="d" unicode="d" horiz-adv-x="729" 
d="M772 795l-143 -795h-146l20 114q-15 -25 -37 -47t-49.5 -38.5t-61.5 -26.5t-74 -10q-55 0 -98.5 23t-71.5 64t-39 96.5t-2 121.5q9 63 34 119t63 97.5t88.5 65.5t110.5 24q40 0 73.5 -12t58.5 -32.5t42 -46.5t25 -54l61 337h146zM350 104q39 0 71 15.5t55.5 42t38.5 62
t20 74.5q6 39 -1 72.5t-24 57.5t-44.5 38t-62.5 14q-39 0 -71.5 -15t-57 -40.5t-40.5 -59.5t-21 -73q-6 -41 1.5 -75t26 -59.5t46.5 -39.5t63 -14z" />
    <glyph glyph-name="e" unicode="e" horiz-adv-x="674" 
d="M638 296q-1 -8 -1.5 -15t-1.5 -14h-437q2 -72 39 -115t109 -43q57 0 94 25.5t60 73.5l114 -16q-15 -45 -42.5 -81.5t-65 -63t-84.5 -41t-102 -14.5q-60 0 -111 20.5t-87.5 59.5t-54.5 95.5t-12 128.5q6 69 33.5 125t70.5 96.5t98.5 62.5t117.5 22q73 0 125 -24
t84.5 -65.5t45.5 -97t8 -119.5zM512 357q-6 60 -40.5 99.5t-99.5 39.5q-66 0 -106.5 -39.5t-56.5 -99.5h303z" />
    <glyph glyph-name="f" unicode="f" horiz-adv-x="409" 
d="M274 622q-5 -25 -8 -43t-8 -42h128l-17 -91h-128q-9 -50 -16 -88t-13 -70.5t-11.5 -62t-11.5 -62.5t-13 -72.5t-16 -90.5h-145l80 446h-66l17 91h66l17 93q10 46 36 83q11 15 26.5 30t36.5 27t48 19t61 7q24 -1 50 -8q23 -6 50.5 -19.5t55.5 -37.5l-48 -84
q-23 13 -44.5 23.5t-51.5 10.5q-29 0 -49 -13t-26 -46z" />
    <glyph glyph-name="g" unicode="g" horiz-adv-x="682" 
d="M404 143q132 0 200 -42.5t62 -125.5q-3 -46 -35 -80t-81.5 -57t-111 -34.5t-124.5 -11.5q-73 0 -128 12t-91 32t-53 46.5t-15 55.5q2 32 18 51.5t34 30.5q21 12 48 16q-19 9 -33 23q-12 12 -21.5 30.5t-7.5 45.5t13.5 47t28.5 34t38 24.5t42 18.5q-37 26 -55.5 63
t-12.5 84q5 48 30 84.5t64 61.5t88.5 37.5t104.5 12.5q63 0 111.5 -15t80.5 -47q6 14 17 32q15 21 34 34.5t37 21t32 11t20 4.5q-6 -31 -11.5 -61t-11.5 -61q-8 0 -18.5 -1t-22.5 -6q-14 -5 -24 -11t-17 -11q5 -8 10 -22t7 -33v-10v-10.5t-1 -10.5q-5 -46 -30 -82.5t-64 -62
t-89 -39t-105 -13.5q-32 0 -56.5 4.5t-47.5 11.5q-3 0 -10.5 -2t-16.5 -5.5t-16 -9t-8 -14.5q-2 -25 50.5 -38t147.5 -13zM396 538q-26 -1 -48.5 -12t-39 -29t-26.5 -42.5t-13 -52.5q-2 -27 3 -51t18 -42t33.5 -28t48.5 -9q26 1 48.5 12t39 29.5t26.5 43t13 51.5
q2 28 -3.5 52t-19 41.5t-33.5 27.5t-47 9zM328 -116q94 0 146.5 21.5t56.5 51.5q2 15 -10.5 28t-37 23t-60 15.5t-78.5 5.5q-48 0 -84.5 -2t-62 -9.5t-39.5 -22t-17 -38.5q-4 -30 40.5 -51.5t145.5 -21.5z" />
    <glyph glyph-name="h" unicode="h" horiz-adv-x="667" 
d="M553 0h-143l66 359q4 23 0.5 44t-15 37.5t-31.5 26t-50 9.5q-24 0 -44.5 -9.5t-37 -25t-27.5 -36t-15 -42.5l-65 -363h-146l143 795h145l-56 -306q11 20 28.5 40t40.5 36t51 26t61 10q43 0 76.5 -17t55.5 -47t30 -70.5t0 -88.5z" />
    <glyph glyph-name="i" unicode="i" horiz-adv-x="299" 
d="M350 838l-23 -132h-171l23 132h171zM186 0h-145l106 589h146l-107 -589v0z" />
    <glyph glyph-name="j" unicode="j" horiz-adv-x="404" 
d="M472 711h-171l24 132h171zM326 -31q-8 -49 -33 -87q-11 -17 -26 -32.5t-36 -27.5t-48 -19.5t-62 -7.5q-20 1 -39 5q-17 3 -36 9.5t-35 17.5l19 103q16 -7 31.5 -13.5t35.5 -6.5q37 0 56 18q12 11 18.5 25.5t10.5 32.5q7 41 14 78.5t14 77t15 84t18 98t22 120t27 150.5
h146q-29 -158 -56.5 -312.5t-55.5 -312.5z" />
    <glyph glyph-name="k" unicode="k" horiz-adv-x="650" 
d="M457 0l-131 251l-94 -81l-30 -170h-147l143 795h147l-84 -466l273 265h169l-274 -263l196 -331h-168v0z" />
    <glyph glyph-name="l" unicode="l" horiz-adv-x="294" 
d="M190 125q9 -12 26.5 -14t36.5 0t36.5 7.5t26.5 8.5l-18 -103q-20 -12 -41 -18.5t-40 -9.5q-22 -4 -43 -4q-23 0 -51 9t-50 30t-33 55.5t-2 85.5q5 27 14 76t20 109.5t22.5 126.5t22.5 126t19.5 109t13.5 76h146q-7 -42 -17 -97l-21 -115.5t-22 -122t-21 -117t-18 -100.5
t-13 -72q-2 -8 -2 -22t8 -24z" />
    <glyph glyph-name="m" unicode="m" horiz-adv-x="996" 
d="M966 378l-68 -378h-145l67 360q5 26 0 50.5t-21 41.5q-11 11 -22.5 16.5t-22.5 8t-19.5 3t-12.5 0.5q-18 -2 -35 -9.5t-31.5 -21t-25 -31.5t-14.5 -40l-69 -378h-144l66 360q4 22 0.5 44t-15.5 38.5t-32.5 27t-49.5 10.5q-23 0 -41.5 -10t-33 -26.5t-24.5 -37t-14 -42.5
l-65 -364h-149l109 594h147l-20 -104q10 18 26.5 38t38.5 36.5t49.5 27t60.5 10.5q64 0 104 -33.5t54 -89.5q2 4 14.5 23.5t35.5 41.5t58.5 40t84.5 18q6 0 16.5 -1t24 -4t28.5 -9.5t30 -17.5q38 -29 54.5 -79t5.5 -113z" />
    <glyph glyph-name="n" unicode="n" horiz-adv-x="670" 
d="M553 0h-142l65 360q4 22 0.5 43t-15 37.5t-31.5 26t-50 9.5q-24 0 -44.5 -9.5t-37 -25t-27.5 -36t-15 -42.5l-64 -363h-147l107 594h145l-19 -105q10 20 27.5 40t40.5 36.5t51 26.5t61 10q43 0 77 -17t55.5 -47t30 -71t-0.5 -89z" />
    <glyph glyph-name="o" unicode="o" horiz-adv-x="672" 
d="M370 601q70 0 122 -24t86 -65t48.5 -96.5t8.5 -118.5q-5 -65 -31 -121t-68 -97t-98 -64t-120 -23q-67 0 -118.5 23t-86 64t-50 97t-10.5 121q6 63 31.5 118.5t67.5 96.5t97.5 65t120.5 24zM328 103q36 0 66 15t52.5 41t36.5 61.5t17 76.5q3 40 -3.5 75t-23.5 61.5
t-45 41.5t-67 15q-41 0 -71.5 -15t-51.5 -41.5t-33.5 -61.5t-15.5 -75q-4 -42 3.5 -77.5t25 -61.5t45 -40.5t65.5 -14.5z" />
    <glyph glyph-name="p" unicode="p" horiz-adv-x="688" 
d="M26 -205l144 799h145l-20 -114q15 25 36.5 47t49.5 38.5t62 26.5t74 10q54 0 97 -23t71 -64t39.5 -96.5t2.5 -121.5q-9 -63 -34 -119t-63 -97t-88.5 -65t-110.5 -24q-38 0 -70 11.5t-57 31.5t-42.5 47.5t-27.5 59.5l-63 -347h-145zM447 490q-39 0 -70.5 -15.5t-55 -42.5
t-38.5 -62t-20 -74q-6 -39 1 -72t24 -57.5t44.5 -38.5t62.5 -14q39 0 71 14.5t56.5 40t40.5 60t21 73.5q6 40 -1.5 74.5t-25.5 60t-46 39.5t-64 14z" />
    <glyph glyph-name="q" unicode="q" horiz-adv-x="674" 
d="M412 -205l60 327q-32 -57 -87 -93.5t-127 -36.5q-60 0 -104 24t-72 65t-38.5 97t-3.5 119q7 66 32.5 121.5t63.5 96.5t87 64t104 23q41 0 76 -13.5t62 -34.5t44.5 -47t22.5 -52l25 139h146l-149 -799h-142zM504 296q4 39 -2 74.5t-23 62t-44.5 42t-66.5 15.5
q-35 0 -67 -14t-56.5 -39.5t-41 -60t-20.5 -74.5q-4 -39 3.5 -73.5t25.5 -60t46.5 -40t67.5 -14.5q35 0 65.5 14t54 38.5t38.5 57.5t20 72z" />
    <glyph glyph-name="r" unicode="r" horiz-adv-x="464" 
d="M499 485q-6 1 -23.5 2t-42 -2.5t-54.5 -14.5t-60 -33q-28 -21 -44.5 -43t-25.5 -37q-16 -90 -32 -178.5t-32 -178.5h-148l107 594h143l-21 -119q8 14 28 41.5t58 51.5q30 19 57.5 26t50 7.5t38.5 -2.5t21 -4z" />
    <glyph glyph-name="s" unicode="s" horiz-adv-x="628" 
d="M571 172q-5 -43 -28 -76.5t-60 -56.5t-85.5 -35t-104.5 -12q-63 0 -111 18t-80 46t-48 62.5t-16 67.5l139 16q0 -22 10 -40t28 -30.5t41 -19.5t48 -7q24 0 46.5 5t40 14t28 22t12.5 30q2 20 -12.5 33t-39 22.5t-57 17.5t-66 17.5t-65 22t-55.5 32t-37 47t-9 66.5
q3 33 21 63t50.5 53.5t80.5 37.5t111 14t107.5 -17.5t73 -44t42 -57.5t13.5 -58l-133 -16q0 15 -7 31.5t-21 30.5t-35.5 23t-50.5 9q-44 0 -74 -18t-33 -47q-3 -27 22.5 -42t64.5 -26.5t85 -23.5t84 -32.5t61.5 -54t18.5 -87.5z" />
    <glyph glyph-name="t" unicode="t" horiz-adv-x="389" 
d="M337 127l-18 -103q-20 -12 -41 -18.5t-40 -9.5q-22 -4 -43 -4q-32 0 -55.5 7.5t-39 19.5t-25.5 27.5t-15 31.5q-12 38 -7 87l58 321h-78l15 86q14 2 30 6.5t34 14.5q30 17 50.5 41t33 46.5t18 40t6.5 22.5h82q-7 -39 -13.5 -78.5t-13.5 -78.5h139l-18 -100h-138
q-6 -33 -11 -63.5t-11.5 -66.5t-15 -82t-19.5 -109q-2 -8 -0.5 -19t9.5 -21q9 -12 27 -14t37 0t36.5 7.5t26.5 8.5z" />
    <glyph glyph-name="u" unicode="u" horiz-adv-x="682" 
d="M140 594h143l-66 -360q-4 -23 -0.5 -44t15 -37t32 -26t50.5 -10q24 0 44.5 9.5t36.5 25t27 36t15 42.5l65 364h147l-107 -594h-145l19 104q-11 -20 -28 -40t-40 -36t-51.5 -26t-61.5 -10q-43 0 -76.5 17t-55.5 47t-30 71t0 89z" />
    <glyph glyph-name="v" unicode="v" horiz-adv-x="580" 
d="M159 0l-134 594h159l78 -447l217 447h158l-316 -594h-162v0z" />
    <glyph glyph-name="w" unicode="w" horiz-adv-x="914" 
d="M819 594h158l-342 -594h-130l-61 261l-141 -261h-131l-157 594h158l100 -454l102 189l-63 265h121l35 -177l91 177h121l-146 -265l44 -189l241 454v0z" />
    <glyph glyph-name="x" unicode="x" horiz-adv-x="686" 
d="M291 594l89 -170l17 -43l30 43l141 170h160l-262 -298l177 -296h-161l-94 168l-16 43l-29 -43l-146 -168h-162l269 296l-172 298h159v0z" />
    <glyph glyph-name="y" unicode="y" horiz-adv-x="634" 
d="M34 -73q5 -4 20.5 -7t39.5 -1q47 5 76.5 35.5t36.5 75.5l-140 564h161l78 -444l209 444h163l-353 -648q-42 -73 -91 -116t-115 -43q-12 0 -26.5 0.5t-29 2t-27 4.5t-21.5 8z" />
    <glyph glyph-name="z" unicode="z" horiz-adv-x="617" 
d="M71 90l384 394h-324l20 110h496l-16 -94l-382 -393h342l-18 -107h-518l16 90v0z" />
    <glyph glyph-name="braceleft" unicode="{" horiz-adv-x="337" 
d="M297 725q-15 -14 -18.5 -27t-7.5 -32l-21 -117q-10 -59 -38 -96q-14 -17 -30 -32.5t-42 -27.5q22 -12 32.5 -27.5t18.5 -32.5q14 -38 4 -96l-21 -117q-4 -19 -5 -32t9 -27q8 -9 21.5 -13.5t18.5 -5.5l-18 -97q-3 0 -2.5 0h1.5t1 0.5t-4 0.5q-8 1 -24 3.5t-34.5 9.5
t-36 20t-27.5 36q-5 9 -9.5 30t2.5 54l26 145q1 5 2.5 15t1.5 22t-4.5 25t-15.5 24q-8 8 -16.5 11t-15.5 4l17 96q7 1 17 4.5t21 11.5q15 10 24 23.5t13.5 26t6 22t2.5 13.5l26 145q5 33 17 54t20 30q18 22 40.5 35.5t43.5 20.5t38 9.5t25 3.5q4 0 4 0.5t-1 0.5h-1h3
l-18 -97q-5 -1 -20 -5t-26 -14z" />
    <glyph glyph-name="bar" unicode="|" horiz-adv-x="222" 
d="M139 -107h-94l173 972h95l-174 -972v0z" />
    <glyph glyph-name="braceright" unicode="}" horiz-adv-x="337" 
d="M233 725q-7 10 -20.5 14t-18.5 5l17 97q3 0 2.5 0h-1.5t-1 -0.5t4 -0.5q8 -1 24 -3.5t34.5 -9.5t36 -20.5t27.5 -35.5q5 -9 9.5 -30t-1.5 -54l-26 -145q-1 -4 -2.5 -13.5t-1.5 -22t4.5 -26t15.5 -23.5q8 -8 16.5 -11.5t15.5 -4.5l-18 -96q-7 -1 -16.5 -4t-20.5 -11
q-15 -11 -24 -24t-13.5 -25t-6.5 -22l-3 -15l-26 -145q-5 -33 -17 -54t-20 -30q-18 -23 -40.5 -36t-43.5 -20t-38 -9.5t-25 -3.5q-4 0 -4 -0.5t1 -0.5h1.5t-2.5 0l17 97q5 1 20.5 5.5t25.5 13.5q16 14 19.5 27t6.5 32l21 117q10 59 38 96q14 17 30 32.5t42 27.5
q-23 12 -33 27.5t-18 32.5q-14 36 -3 96l21 117q3 19 4.5 32t-9.5 27z" />
    <glyph glyph-name="sterling" unicode="&#xa3;" horiz-adv-x="559" 
d="M98 429h73q-10 25 -16 45t-9 39t-2 38.5t5 43.5q9 48 32 85t56 63t73.5 39.5t84.5 13.5t79 -11t62 -26.5t45.5 -32t28.5 -26.5l-60 -90q-11 8 -22.5 17.5t-27 18t-36 14t-49.5 5.5q-51 0 -83.5 -30.5t-40.5 -79.5q-3 -19 -2.5 -35t3 -31t6.5 -29.5t7 -30.5h229l-18 -99
h-202q-8 -47 -41.5 -106t-95.5 -113q14 4 35.5 8t45.5 7t46.5 4.5t37.5 1.5q26 0 47 -5t41 -9t40 -5t44 7l5 -102q-20 -11 -42 -18.5t-57 -7.5q-26 0 -49 5t-46.5 11t-49.5 11t-57 5q-70 0 -167 -33l-6 141q51 35 90 86.5t50 111.5h-105z" />
    <glyph glyph-name="yen" unicode="&#xa5;" horiz-adv-x="766" 
d="M477 370h161l-16 -89h-211l-1 -1l-10 -60h211l-16 -89h-211l-24 -131h-160l24 131h-209l16 89h208l11 61h-208l16 89h158l-164 425h172l129 -390l270 390h171l-317 -425v0z" />
    <glyph glyph-name="copyright" unicode="&#xa9;" horiz-adv-x="864" 
d="M696 333q-14 -42 -36.5 -77.5t-56 -62t-78.5 -41t-103 -14.5q-52 0 -96.5 16.5t-75.5 48.5t-46.5 79.5t-8.5 110.5q6 53 28.5 99.5t59.5 81.5t87 55t110 20q105 0 164 -51.5t64 -139.5l-96 -11q-5 56 -38 90t-93 34q-38 0 -69 -13.5t-53.5 -37.5t-36.5 -56.5t-18 -69.5
q-5 -43 4 -76t28.5 -55.5t47 -34t59.5 -11.5q54 0 96 32t61 91zM489 796q87 0 160 -31.5t124.5 -86t77.5 -128t19 -156.5q-8 -83 -47.5 -156.5t-101 -128t-140.5 -86t-165 -31.5t-159 31.5t-125 86t-78 128t-18 156.5q7 83 46.5 156.5t101 128t140.5 86t165 31.5zM421 58
q72 0 137.5 26.5t117 72t84.5 106.5t39 130t-15.5 130t-64.5 106.5t-104 72t-133 26.5t-137.5 -26.5t-117 -72t-84.5 -106.5t-39 -130t15.5 -130t64.5 -106.5t104 -72t133 -26.5z" />
    <glyph glyph-name="guillemotleft" unicode="&#xab;" horiz-adv-x="672" 
d="M45 294l213 243h115l-213 -243l126 -243h-115zM299 294l213 243h115l-213 -243l126 -243h-115z" />
    <glyph glyph-name="registered" unicode="&#xae;" horiz-adv-x="864" 
d="M645 173h-113l-85 152h-84l-28 -152h-96l85 457h182q37 0 66 -12t48.5 -33t28 -49t5.5 -60q-5 -48 -35.5 -84.5t-74.5 -53.5zM377 396h94q18 0 33.5 7.5t26.5 19.5t17.5 26.5t8.5 28.5q1 14 -3 28.5t-13.5 26t-24 19t-32.5 7.5h-77zM489 797q87 0 160 -31.5t124.5 -86.5
t77.5 -128t19 -157q-8 -83 -47.5 -156.5t-101 -128t-140.5 -86t-165 -31.5t-159 31.5t-125 86t-78 128t-18 156.5q7 84 46.5 157t101 128t140.5 86.5t165 31.5zM421 58q72 0 137.5 26.5t117 72t84.5 106.5t39 130q6 70 -15.5 131t-64.5 106.5t-104 72t-133 26.5
t-137.5 -26.5t-117 -72t-84.5 -106.5t-39 -131q-6 -69 15.5 -130t64.5 -106.5t104 -72t133 -26.5z" />
    <glyph glyph-name="paragraph" unicode="&#xb6;" horiz-adv-x="675" 
d="M23 517q24 132 119 205q97 74 247 74h309l-17 -94h-79l-141 -792h-105l59 332h-68l-59 -332h-105l59 332q-61 0 -107 20q-48 22 -75 56t-38 86q-11 51 1 113zM126 519q-8 -44 0 -77q6 -33 26 -56q9 -11 20.5 -19.5t25.5 -15.5q27 -13 61 -15l65 366q-80 -3 -132 -52
q-51 -49 -66 -131zM497 702h-68l-65 -366h68z" />
    <glyph glyph-name="guillemotright" unicode="&#xbb;" horiz-adv-x="672" 
d="M627 294l-213 -243h-115l213 243l-126 243h115l126 -243v0zM373 294l-213 -243h-115l213 243l-126 243h115l126 -243v0z" />
    <glyph glyph-name="questiondown" unicode="&#xbf;" horiz-adv-x="579" 
d="M279 531h142q-7 -57 -25 -94.5t-41 -64t-49 -45.5t-48.5 -38t-39 -42.5t-20.5 -58.5q-4 -37 22.5 -62.5t75.5 -25.5q54 0 90 34t44 85l143 -18q-16 -53 -45 -92t-67.5 -65t-85.5 -39t-98 -13q-63 0 -108.5 17t-74 45t-40.5 64t-7 75q6 50 24 82.5t42 55.5t51 41t51 39
t41.5 49t22.5 71zM327 795h140l-31 -174h-140z" />
    <glyph glyph-name="germandbls" unicode="&#xdf;" horiz-adv-x="626" 
d="M300 136q42 0 73 11t52.5 29t34 40.5t16.5 45.5q4 25 -1 48.5t-20.5 40.5t-43 27.5t-67.5 10.5l19 104q35 0 59 8t40 21t24.5 30t11.5 35q3 17 0.5 33.5t-12.5 30t-27 21.5t-43 8q-57 0 -83 -27.5t-34 -69.5l-104 -583h-150l105 590q17 97 88 153.5t191 56.5
q51 0 92 -14.5t68.5 -39.5t39.5 -59t5 -73q-6 -37 -20 -63t-30.5 -44.5t-34.5 -30.5t-33 -21q28 -10 51.5 -28t38.5 -44.5t20.5 -62t-2.5 -80.5q-9 -51 -33 -95t-65.5 -76t-103 -50.5t-146.5 -18.5z" />
    <glyph glyph-name="florin" unicode="&#x192;" horiz-adv-x="539" 
d="M456 621q-2 -12 -5 -28l-6 -32t-5.5 -31.5t-4.5 -27.5h127l-16 -91h-129q-20 -112 -39.5 -223t-39.5 -223q-10 -48 -35 -85q-11 -16 -26 -31t-35.5 -27t-47 -19t-60.5 -7q-19 1 -38 5q-17 3 -35.5 9.5t-35.5 17.5l18 103q17 -7 32.5 -13.5t35.5 -6.5q17 0 31 4t25 14
q16 14 21 32t7 26q10 53 28.5 155t47.5 269h-65l16 91h66l23 127q9 46 34 83q10 15 25.5 30t36.5 27t48 19t62 7q25 -1 51 -8q23 -6 51 -19.5t56 -37.5l-48 -84q-23 13 -44.5 23.5t-51.5 10.5q-29 0 -49 -13t-26 -46z" />
    <glyph glyph-name="quoteleft" unicode="&#x2018;" horiz-adv-x="155" 
d="M113 736h52l-25 -142h-125l25 142l99 107h46l-72 -107v0z" />
    <glyph glyph-name="quoteright" unicode="&#x2019;" horiz-adv-x="155" 
d="M87 701h-52l25 142h125l-25 -142l-99 -107h-46l72 107v0z" />
    <glyph glyph-name="quotedblleft" unicode="&#x201c;" horiz-adv-x="355" 
d="M313 736h52l-25 -142h-125l25 142l99 107h46zM113 736h52l-25 -142h-125l25 142l99 107h46z" />
    <glyph glyph-name="quotedblright" unicode="&#x201d;" horiz-adv-x="355" 
d="M87 701h-52l25 142h125l-25 -142l-99 -107h-46zM287 701h-52l25 142h125l-25 -142l-99 -107h-46z" />
    <glyph glyph-name="fraction" unicode="&#x2044;" horiz-adv-x="300" 
d="M603 994l-667 -794h-164l666 794h165v0z" />
    <glyph glyph-name="Euro" unicode="&#x20ac;" horiz-adv-x="902" 
d="M873 299q-19 -66 -52.5 -122.5t-84 -97.5t-119 -64t-157.5 -23q-65 0 -123.5 17.5t-105 51.5t-78.5 85t-44 119h-89l45 85h37v21.5t2 21.5q0 5 0.5 10t1.5 10h-74l46 85h46q20 64 57.5 119t89.5 95t118 62.5t143 22.5q80 0 143.5 -21.5t109 -60.5t71.5 -95t32 -125
l-147 -17q-9 87 -60.5 141.5t-143.5 54.5q-89 0 -152 -49t-92 -127h339l-46 -85h-314q0 -5 -0.5 -9t-1.5 -9q-1 -11 -1 -22.5v-22.5h288l-45 -85h-229q23 -73 79 -111t128 -38q40 0 77.5 13t68 38t54 61t37.5 82z" />
    <glyph glyph-name="trademark" unicode="&#x2122;" horiz-adv-x="764" 
d="M599 484l38 214l-126 -166h-36l-66 167l-38 -215h-68l56 310h78l68 -194l139 194h78l-56 -310h-67v0zM332 794l-9 -49h-116l-47 -261h-66l47 261h-116l9 49h298v0z" />
    </font>
</defs>
</svg>
