<?xml version="1.0" standalone="no"?>
<!DOCTYPE svg PUBLIC "-//W3C//DTD SVG 1.1//EN" "http://www.w3.org/Graphics/SVG/1.1/DTD/svg11.dtd" >
<svg xmlns="http://www.w3.org/2000/svg" xmlns:xlink="http://www.w3.org/1999/xlink" version="1.1">
<metadata>
Created by FontForge 20170731 at Fri May 26 15:28:53 2017
 By Aleksey,,,
</metadata>
<defs>
<font id="Clinton-ExtraBold" horiz-adv-x="235" >
  <font-face 
    font-family="Clinton"
    font-weight="800"
    font-stretch="normal"
    units-per-em="1000"
    panose-1="0 0 0 0 0 0 0 0 0 0"
    ascent="750"
    descent="-250"
    x-height="594"
    cap-height="795"
    bbox="-228 -213.133 1291 989"
    underline-thickness="50"
    underline-position="-150"
    unicode-range="U+000D-FB04"
  />
<missing-glyph horiz-adv-x="300" 
 />
    <glyph glyph-name="ff" unicode="ff" horiz-adv-x="809" 
d="M678 637q-29 0 -47 -13.5t-18 -43.5v-74h127v-119h-128q-1 -54 -1.5 -108t-1 -105t-1 -95.5t-0.5 -78.5h-190v387h-133q-1 -54 -1.5 -108t-1 -105t-1 -95.5t-0.5 -78.5h-190v387h-66v119h66v87q3 46 22 83q8 15 21 30t32 27t44.5 19t59.5 7q23 2 50 -2q23 -3 55 -12
t68 -28q9 15 22 29t31.5 25.5t43.5 18t57 6.5q31 2 67 -5q31 -6 70.5 -21t84.5 -46l-47 -117q-23 12 -43.5 21t-50.5 9zM418 584q-15 7 -31 11.5t-36 4.5q-29 0 -47 -13.5t-18 -43.5v-37h132v78z" />
    <glyph glyph-name="fi" unicode="fi" horiz-adv-x="627" 
d="M594 506v-506h-189v387h-124q-2 -97 -2.5 -193.5t-2.5 -193.5h-189v387h-66v119h66v124q3 46 22 83q8 15 21 30t32 27t44.5 19t59.5 7q31 2 67 -5q31 -6 70.5 -21t84.5 -46l-47 -117q-23 12 -44 21t-50 9t-47 -13.5t-18 -43.5v-74h312z" />
    <glyph glyph-name="fl" unicode="fl" horiz-adv-x="762" 
d="M758 175v-122q-27 -22 -56.5 -32.5t-54.5 -15.5q-29 -5 -57 -5q-35 0 -61.5 7t-46 18.5t-32 26.5t-20.5 31q-18 37 -19 84v379q0 29 -20.5 50t-49.5 22q-29 0 -49.5 -15t-20.5 -44v-44h81v-119h-81v-396h-191v193.5t1 202.5h-66v119h66v75q0 50 19 87.5t51.5 63
t76.5 38.5t94 13h38q50 0 93.5 -19t76.5 -51.5t52 -76t19 -93.5q0 -74 0.5 -135.5t1 -107t0.5 -73.5v-37q0 -4 1 -13t8 -17q10 -11 24 -14t26 -3q16 0 33 3t31 8q17 5 32 12z" />
    <glyph glyph-name="ffi" unicode="ffi" horiz-adv-x="932" 
d="M904 506v-506h-189v387h-124l-3 -387h-191v387h-122q0 -54 -1 -108t-1.5 -105t-1 -95.5t-0.5 -78.5h-190v387h-66v119h66v87q3 46 22 83q8 15 21 30t32 27t44.5 19t59.5 7q22 2 48 -2q23 -3 52.5 -11t64.5 -25q17 29 53 52t98 23q31 2 67 -5q31 -6 70.5 -21t84.5 -46
l-47 -117q-23 12 -43.5 21t-50.5 9q-29 0 -46.5 -13.5t-17.5 -43.5v-35.5t-1 -38.5h312zM397 506v83q-12 5 -25.5 8t-30.5 3q-29 0 -46.5 -13.5t-17.5 -43.5v-12v-5.5t-0.5 -6t-0.5 -13.5h121z" />
    <glyph glyph-name="ffl" unicode="ffl" horiz-adv-x="1086" 
d="M987 152q16 0 33 3t31 8q17 5 32 12v-122q-27 -22 -56.5 -32.5t-54.5 -15.5q-29 -5 -57 -5q-35 0 -61.5 7t-46 18.5t-32 26.5t-20.5 31q-18 37 -19 84v379q0 29 -20.5 50t-49.5 22q-29 0 -49.5 -15t-20.5 -44v-53h81v-119h-81v-387h-191v387h-130l-2 -108t-1.5 -105
t-1 -95.5t-0.5 -78.5h-189v387h-66v119h66v87q3 46 22 83q8 15 21 30t32 27t44.5 19t59.5 7q25 1 55 -3q26 -4 59 -14t71 -32q32 41 85 61.5t116 20.5h39q49 0 93 -19t76.5 -51.5t52 -76t19.5 -93.5q0 -74 0.5 -135.5t1 -107t0.5 -73.5v-37q0 -4 1 -13t8 -17q9 -11 23.5 -14
t26.5 -3zM406 585q-14 7 -29.5 11t-35.5 4q-29 0 -47 -13.5t-18 -43.5v-37h130v79z" />
    <glyph glyph-name=".notdef" horiz-adv-x="300" 
 />
    <glyph glyph-name=".null" horiz-adv-x="0" 
 />
    <glyph glyph-name="nonmarkingreturn" unicode="&#xd;" horiz-adv-x="287" 
 />
    <glyph glyph-name="NULL" horiz-adv-x="0" 
 />
    <glyph glyph-name="NULL" horiz-adv-x="0" 
 />
    <glyph glyph-name="space" unicode=" " horiz-adv-x="287" 
 />
    <glyph glyph-name="exclam" unicode="!" horiz-adv-x="256" 
d="M211 261h-166v528h166v-528v0zM211 0h-166v172h166v-172v0z" />
    <glyph glyph-name="quotedbl" unicode="&#x22;" horiz-adv-x="435" 
d="M298 704h-53v142h145v-142l-79 -107h-66zM98 704h-53v142h145v-142l-79 -107h-66z" />
    <glyph glyph-name="numbersign" unicode="#" horiz-adv-x="868" 
d="M823 458h-177l-31 -127h153l-1 -132h-185l-49 -199h-150l50 199h-108l-49 -199h-150l50 199h-131l1 132h163l31 127h-140l1 122h169l53 209h150l-54 -209h108l53 209h150l-54 -209h147v-122v0zM466 331l29 127h-106l-31 -127h108v0z" />
    <glyph glyph-name="dollar" unicode="$" horiz-adv-x="818" 
d="M439 485q36 -9 75 -17.5t76 -20t70.5 -27.5t58.5 -39t39.5 -54t14.5 -73q0 -47 -16.5 -91.5t-53 -80t-94.5 -60t-141 -30.5v-89h-118v91q-58 7 -111.5 26.5t-95 49.5t-68 69.5t-30.5 87.5l188 23q4 -25 17.5 -43.5t33 -31t43.5 -20t50 -10.5v187q-53 12 -109 26
t-101.5 37.5t-74.5 60.5t-29 95q0 63 25 107t65.5 72.5t91.5 43t103 19.5v90h119v-90q61 -6 111 -23.5t86.5 -45t58.5 -63.5t28 -78l-190 -24q-2 3 -7 16t-17.5 28.5t-35.5 29.5t-62 19v-167zM274 586q0 -33 29 -52.5t74 -33.5v154q-45 -4 -74 -21.5t-29 -46.5zM439 143
q59 5 91 28.5t32 54.5q0 18 -9.5 32t-26 25t-39 19.5t-48.5 15.5v-175z" />
    <glyph glyph-name="percent" unicode="%" horiz-adv-x="899" 
d="M234 796q46 0 81 -13.5t58 -37t34.5 -55t11.5 -67.5t-11.5 -67.5t-34.5 -54.5t-58.5 -36.5t-83.5 -13.5q-39 0 -72.5 11.5t-59 34t-40 54t-14.5 72.5q0 39 14.5 70.5t40 54.5t60 35.5t74.5 12.5zM230 533q39 0 59 24.5t20 66.5q0 38 -18 64.5t-60 26.5q-38 0 -57.5 -24.5
t-19.5 -66.5q0 -43 19.5 -67t56.5 -24zM671 335q46 0 81 -13.5t58 -36.5t34.5 -55t11.5 -68t-11 -67.5t-34.5 -54.5t-58.5 -36.5t-83 -13.5q-39 0 -73 12t-59.5 34t-40 54t-14.5 72q0 39 14.5 71t40 54.5t60 35t74.5 12.5zM668 72q39 0 59 24.5t20 66.5q0 38 -18.5 64.5
t-60.5 26.5q-38 0 -57 -24.5t-19 -66.5q0 -43 19.5 -67t56.5 -24zM183 -9l-75 61q80 90 157 180.5t153 183.5q76 94 149.5 187.5t145.5 190.5q20 -16 38.5 -31t37.5 -31q-81 -91 -159 -181.5t-154 -184.5q-76 -93 -148.5 -186t-144.5 -189z" />
    <glyph glyph-name="ampersand" unicode="&#x26;" horiz-adv-x="867" 
d="M598 0l-53 55q-13 -9 -35 -19.5t-50.5 -20.5t-62.5 -16.5t-71 -6.5q-48 0 -98 14.5t-90.5 45t-66.5 77t-26 109.5q0 46 16.5 82t38 61.5t41.5 40.5t26 20q-6 6 -18.5 19.5t-25 33t-22 44.5t-9.5 54q0 38 15.5 74t45 64.5t73 46t100.5 17.5q51 0 94 -16t74 -42t48.5 -60
t17.5 -70q0 -43 -18 -78.5t-39.5 -60.5t-40.5 -39.5t-20 -15.5l121 -129q8 10 11.5 24.5t4.5 32t-1 35.5t-5 34h176q-1 -23 -5 -52.5t-15 -64.5t-28 -66.5t-30 -50.5q43 -45 88.5 -88t88.5 -88h-250zM442 164q-41 42 -80.5 83.5t-79.5 83.5q-24 -12 -39.5 -32t-21.5 -42.5
t-1 -44.5t21 -38t39 -26t50 -12.5t56 4t56 24.5zM272 603q0 -8 4.5 -17.5t12 -19.5t16 -20t17.5 -17q22 15 43 35t21 43q0 25 -17.5 38t-41.5 13t-39.5 -13.5t-15.5 -41.5z" />
    <glyph glyph-name="quotesingle" unicode="'" 
d="M98 704h-53v142h145v-142l-79 -107h-66l53 107v0z" />
    <glyph glyph-name="parenleft" unicode="(" horiz-adv-x="415" 
d="M368 787q-46 -52 -82 -118q-31 -57 -56.5 -137t-25.5 -179q0 -100 25.5 -181t57.5 -140q36 -69 83 -123h-166q-45 63 -80 136q-30 62 -54.5 142t-24.5 168q0 87 24 165t53 138q34 70 78 129h168z" />
    <glyph glyph-name="parenright" unicode=")" horiz-adv-x="415" 
d="M215 787q43 -59 77 -129q15 -30 29 -64.5t25 -73.5t17.5 -80.5t6.5 -84.5q0 -44 -7 -86t-18 -81.5t-25.5 -75.5t-29.5 -67q-35 -73 -79 -136h-166q46 54 83 123q31 58 57 139.5t26 181.5q0 99 -25.5 179t-56.5 137q-36 66 -82 118h168z" />
    <glyph glyph-name="asterisk" unicode="*" horiz-adv-x="396" 
d="M74 633l53 78l-82 30l31 78l78 -36l-4 88h95l-3 -88l78 36l31 -78l-82 -30l54 -78l-71 -45l-54 83l-54 -83l-70 45v0z" />
    <glyph glyph-name="plus" unicode="+" horiz-adv-x="422" 
d="M377 356v-128h-94v-103h-143v103h-95v128h95v104h143v-104h94v0z" />
    <glyph glyph-name="comma" unicode="," 
d="M98 0h-53v142h145v-142l-79 -107h-66l53 107v0z" />
    <glyph glyph-name="hyphen" unicode="-" horiz-adv-x="386" 
d="M341 225h-296v138h296v-138v0z" />
    <glyph glyph-name="period" unicode="." horiz-adv-x="225" 
d="M40 0v142h145v-142h-145z" />
    <glyph glyph-name="slash" unicode="/" horiz-adv-x="847" 
d="M802 789l-561 -789h-196l560 789h197v0z" />
    <glyph glyph-name="zero" unicode="0" horiz-adv-x="636" 
d="M321 643q68 0 118.5 -25.5t84.5 -69.5t50.5 -103.5t16.5 -127.5t-16.5 -127.5t-50 -103.5t-85 -69t-121.5 -25q-57 0 -106.5 22t-86.5 64t-58.5 102t-21.5 137q0 73 21.5 133t58.5 103t87.5 66.5t108.5 23.5zM316 146q57 0 86.5 47t29.5 125q0 36 -6.5 67.5t-20.5 54.5
t-35.5 36.5t-52.5 13.5q-56 0 -84 -46.5t-28 -125.5q0 -81 28.5 -126.5t82.5 -45.5z" />
    <glyph glyph-name="one" unicode="1" horiz-adv-x="436" 
d="M202 0v448q-11 -11 -29.5 -24.5t-44.5 -25.5q-25 -11 -46 -16.5t-37 -7.5v166q17 5 40 13.5t49 25.5q24 16 40.5 32.5t27.5 29.5h189v-641h-189z" />
    <glyph glyph-name="two" unicode="2" horiz-adv-x="624" 
d="M45 0v65q0 61 26.5 107t66 82t86 63t86 51t66 46.5t26.5 48.5q0 3 -3 13t-11 20.5t-24 19t-41 8.5q-45 0 -72.5 -29.5t-27.5 -71.5l-168 20q19 101 89 153.5t185 52.5q61 0 107 -17t76.5 -45t46 -63.5t15.5 -72.5q0 -46 -20.5 -82t-52 -65t-68.5 -52t-71 -42t-60 -35.5
t-34 -32.5l311 1v-143h-534z" />
    <glyph glyph-name="three" unicode="3" horiz-adv-x="675" 
d="M286 325q37 0 67 8t50 22t31 32t11 38q0 42 -25.5 68t-64.5 26q-21 0 -39 -8t-31 -21t-21 -30.5t-9 -36.5l-172 20q12 54 39 92.5t63.5 64t79 37.5t86.5 12q54 0 99.5 -15.5t78 -43t50.5 -64.5t18 -80q0 -48 -16.5 -79.5t-37.5 -51.5t-40 -29.5t-23 -12.5q6 -3 30 -12.5
t51 -30.5t48 -56t21 -90q0 -48 -22.5 -90t-61 -73.5t-90 -49.5t-109.5 -18q-55 0 -107 16.5t-94 47t-69 75t-32 101.5l178 26q0 -24 9 -46t25.5 -38.5t39.5 -26t51 -9.5q25 0 45.5 8.5t35 22t22 30t7.5 33.5q0 22 -8.5 41t-29 32.5t-53.5 21.5t-81 8v129z" />
    <glyph glyph-name="four" unicode="4" horiz-adv-x="697" 
d="M353 -147v147h-308v143l359 498h140v-497h108v-144h-108v-147h-191v0zM215 144h171v233l-171 -233v0z" />
    <glyph glyph-name="five" unicode="5" horiz-adv-x="675" 
d="M234 305q22 28 61.5 46t93.5 18t98.5 -19t76 -52t49 -78.5t17.5 -98.5q0 -55 -20.5 -104t-58 -85.5t-89.5 -57.5t-115 -21q-61 0 -111 17t-88 48.5t-64 76t-39 98.5l178 26q6 -55 41.5 -87.5t83.5 -32.5q29 0 51.5 11.5t38.5 30t24 42.5t8 49q0 28 -9.5 51t-26.5 39.5
t-39.5 25.5t-48.5 9q-33 0 -55 -10.5t-35.5 -23t-20 -24t-7.5 -12.5h-86t-86 -1q14 115 27 228t27 227h228.5t228.5 -1v-72t-1 -72q-78 1 -154 1.5t-154 1.5q-6 -49 -12 -97.5t-12 -96.5z" />
    <glyph glyph-name="six" unicode="6" horiz-adv-x="685" 
d="M640 265q0 -60 -22.5 -110t-62.5 -86.5t-93.5 -56.5t-115.5 -20q-82 0 -139 30.5t-93 82.5t-52.5 119.5t-16.5 141.5q0 72 14 147t48.5 136.5t91.5 100.5t144 39q74 0 126 -20.5t85.5 -50.5t50.5 -64t22 -61l-156 -19q-2 13 -11.5 28t-24.5 27t-35 20t-44 8
q-30 0 -56 -16.5t-45.5 -46.5t-30.5 -72t-11 -93q23 42 66.5 68.5t102.5 26.5q57 0 104.5 -19.5t81.5 -54t53 -82t19 -103.5zM351 140q26 0 49 9.5t40 26.5t27 39.5t10 49.5q0 21 -7 44t-22 42t-38.5 31.5t-56.5 12.5q-29 0 -51.5 -11.5t-38 -29.5t-24 -41.5t-8.5 -47.5
t9 -46.5t25 -40t38 -28t48 -10.5z" />
    <glyph glyph-name="seven" unicode="7" horiz-adv-x="678" 
d="M366 497h-321v144h588l-370 -788h-218l321 644v0z" />
    <glyph glyph-name="eight" unicode="8" horiz-adv-x="699" 
d="M654 241q0 -60 -26 -106t-69 -78t-98 -48.5t-113 -16.5q-59 0 -114 16.5t-97 49t-67 80t-25 109.5q0 42 17.5 73t40 52t44 33t29.5 17q-9 7 -25.5 19.5t-32.5 31.5t-28 44.5t-12 57.5q0 46 23 85.5t61 68t87 44.5t101 16q51 0 100 -15t87.5 -42.5t61.5 -67t23 -87.5
q0 -34 -12 -60t-28.5 -44.5t-33 -31t-25.5 -19.5q7 -5 28.5 -17t44 -33.5t40.5 -53.5t18 -77zM472 246q0 21 -8.5 41.5t-24 36.5t-38.5 26t-51 10t-51 -9t-39.5 -24.5t-25.5 -35t-9 -40.5q0 -20 7.5 -40.5t23 -37t39 -27.5t55.5 -11q29 0 52 10.5t38.5 26.5t23.5 36t8 38z
M256 560q0 -38 27 -61.5t67 -23.5q43 0 68.5 25t25.5 60t-22.5 61.5t-71.5 26.5q-47 0 -70.5 -27.5t-23.5 -60.5z" />
    <glyph glyph-name="nine" unicode="9" horiz-adv-x="643" 
d="M22 376q0 60 22.5 110t62.5 86.5t93.5 56.5t115.5 20q82 0 139 -30.5t93 -82.5t52.5 -119.5t16.5 -140.5q0 -72 -14 -147t-48 -136.5t-91.5 -100.5t-143.5 -39q-74 0 -126 20.5t-85.5 50.5t-51 64t-21.5 61l155 19q2 -14 11.5 -28.5t24.5 -26.5t35 -20t44 -8
q30 0 56 16.5t45.5 46.5t30.5 71.5t11 92.5q-23 -42 -66.5 -68t-102.5 -26q-57 0 -104.5 19.5t-81.5 54t-53 81.5t-19 103zM311 501q-26 0 -49 -9.5t-40 -26t-27 -39.5t-10 -50q0 -21 7 -44t22 -41.5t38.5 -31t56.5 -12.5q28 0 51 11t38.5 29.5t24 41.5t8.5 47t-9 46.5
t-25 40t-38 28t-48 10.5z" />
    <glyph glyph-name="colon" unicode=":" 
d="M190 344h-145v142h145v-142v0zM190 0h-145v142h145v-142v0z" />
    <glyph glyph-name="semicolon" unicode=";" 
d="M98 0l-53 -107h67l78 107v142h-145v-142h53v0zM190 344h-145v142h145v-142v0z" />
    <glyph glyph-name="less" unicode="&#x3c;" horiz-adv-x="523" 
d="M45 323l433 271v-174l-203 -122l203 -115v-183l-433 265v58v0z" />
    <glyph glyph-name="equal" unicode="=" horiz-adv-x="390" 
d="M45 339v100h300v-100h-300v0zM45 149v100h300v-100h-300v0z" />
    <glyph glyph-name="greater" unicode="&#x3e;" horiz-adv-x="523" 
d="M478 265l-433 -265v183l203 115l-203 122v174l433 -271v-58v0z" />
    <glyph glyph-name="question" unicode="?" horiz-adv-x="609" 
d="M383 261h-167q0 56 13 93t32.5 63t42.5 45t42.5 38t32.5 42.5t13 59.5q0 10 -5.5 21.5t-16.5 21.5t-27 16.5t-37 6.5q-15 0 -31.5 -6.5t-30 -19t-22.5 -31.5t-10 -44l-167 20q9 52 33 91t59.5 64.5t80 38.5t95.5 13q62 0 109 -17t78.5 -44.5t47.5 -63.5t16 -74
q0 -51 -13.5 -84t-33.5 -56.5t-43.5 -41t-43.5 -37.5t-33.5 -46.5t-13.5 -68.5zM382 0h-166v172h166v-172z" />
    <glyph glyph-name="at" unicode="@" horiz-adv-x="1005" 
d="M960 338q0 -38 -11 -80t-36 -77.5t-65.5 -58.5t-98.5 -23q-47 0 -80 12t-54.5 27.5t-31.5 29t-10 16.5q-20 -44 -62.5 -64.5t-101.5 -20.5q-32 0 -60 8.5t-48.5 24.5t-32.5 39t-12 52q0 52 23 82.5t64 48.5t97.5 28t124.5 23q0 32 -11 48.5t-24 24.5q-15 8 -34 8
q-31 0 -53 -19t-24 -50l-144 13q5 35 17 61t29 45t36.5 31t39.5 20q47 18 102 17q53 0 93.5 -13.5t68.5 -35.5t42 -49t14 -55v-162q0 -33 9 -52.5t21.5 -29t26 -12t23.5 -2.5q30 0 49.5 17t31 40t16.5 48t5 40q0 76 -29 147.5t-81 127t-125.5 89t-161.5 33.5q-82 0 -154 -31
t-126 -85t-85 -126.5t-31 -154.5q0 -88 33 -161t88 -125t126.5 -81t148.5 -29q59 0 101 10t71 24.5t48 30.5t33 27q10 -11 19.5 -22.5t20.5 -22.5q-18 -17 -46 -35.5t-64.5 -35t-82.5 -27t-100 -10.5q-87 0 -169.5 33.5t-146.5 93.5t-102.5 144t-38.5 186q0 98 37 181.5
t99.5 145t145.5 96.5t175 35q102 0 186 -38t144.5 -101.5t94 -146.5t33.5 -172zM540 243q10 12 15.5 25.5t8 25.5t2 21t-0.5 12q-25 -7 -48 -10.5t-42.5 -7.5t-34.5 -10.5t-23 -19.5q-4 -5 -6 -10t-2 -16q0 -20 14.5 -31t34.5 -13t42.5 6.5t39.5 27.5z" />
    <glyph glyph-name="A" unicode="A" horiz-adv-x="857" 
d="M35 0l309 795h170l308 -795h-207l-52 148l-271 -1l-50 -147h-207v0zM428 604l-106 -331h209l-103 331v0z" />
    <glyph glyph-name="B" unicode="B" horiz-adv-x="743" 
d="M713 204q0 -40 -19 -77t-54 -65t-84.5 -45t-110.5 -17h-400v795h444q41 0 75 -18t59 -47.5t38.5 -66t13.5 -72.5q0 -65 -36.5 -112t-96.5 -71q38 -12 69.5 -28.5t54 -40.5t35 -57t12.5 -78zM239 638v-164h182q37 0 57.5 25.5t20.5 57.5q0 34 -20 57.5t-54 23.5h-186z
M529 244q0 35 -23 60t-58 25h-209v-173h206q18 0 33.5 7.5t27 19.5t17.5 28t6 33z" />
    <glyph glyph-name="C" unicode="C" horiz-adv-x="871" 
d="M826 299q-13 -66 -42 -122.5t-76 -97.5t-113.5 -64t-155.5 -23q-80 0 -151.5 25.5t-125.5 76t-85.5 125.5t-31.5 174q0 84 27.5 157.5t79.5 128t125.5 86.5t166.5 32q79 0 144.5 -21.5t114 -60.5t80 -95t42.5 -125l-176 -20q-8 36 -23 67t-38 53.5t-55.5 35t-74.5 12.5
q-58 0 -95.5 -23.5t-59.5 -59.5t-30.5 -80t-8.5 -85q0 -118 52 -182.5t140 -64.5q77 0 124.5 42.5t67.5 121.5z" />
    <glyph glyph-name="D" unicode="D" horiz-adv-x="817" 
d="M45 0v795h319q84 0 158 -29t129.5 -81.5t88 -125t32.5 -160.5t-32.5 -161.5t-88 -126t-129.5 -82t-158 -29.5h-319zM561 399q0 49 -16.5 93.5t-43.5 78t-62.5 53t-74.5 19.5h-115v-491h115q40 0 76 21t63 56t42.5 79t15.5 91z" />
    <glyph glyph-name="E" unicode="E" horiz-adv-x="667" 
d="M249 644v-170h323v-153h-323v-169h378v-152h-516v0h-66v795h582v-151h-378v0z" />
    <glyph glyph-name="F" unicode="F" horiz-adv-x="672" 
d="M249 644v-170h308v-153h-308v-321h-204v795h582v-151h-378v0z" />
    <glyph glyph-name="G" unicode="G" horiz-adv-x="873" 
d="M828 402v-402h-177v77q-32 -42 -88 -63.5t-125 -21.5q-79 0 -150.5 25.5t-125.5 76t-85.5 125.5t-31.5 174q0 84 27.5 157.5t79.5 128t125.5 86.5t166.5 32q79 0 144.5 -21.5t114 -60.5t80 -95t42.5 -125l-176 -20q-8 36 -22.5 67t-38 53.5t-56 35t-74.5 12.5
q-58 0 -95.5 -23.5t-59.5 -59.5t-30.5 -80t-8.5 -85q0 -118 52.5 -182.5t140.5 -64.5q66 0 105 28t65 79h-145v147h346z" />
    <glyph glyph-name="H" unicode="H" horiz-adv-x="806" 
d="M761 795v-795h-203v299h-310v-299h-203v795h203v-345h310v345h203v0z" />
    <glyph glyph-name="I" unicode="I" horiz-adv-x="293" 
d="M248 0h-203v795h203v-795v0z" />
    <glyph glyph-name="J" unicode="J" horiz-adv-x="629" 
d="M85 215q15 -11 29.5 -21.5t32.5 -18.5t41 -13.5t55 -5.5q51 0 79.5 21t41.5 55.5t15.5 78t2.5 89.5v395h195v-438q0 -83 -14.5 -150.5t-49.5 -115t-92.5 -73.5t-144.5 -26q-35 0 -71 8t-68.5 20t-60 26.5t-46.5 28.5z" />
    <glyph glyph-name="K" unicode="K" horiz-adv-x="806" 
d="M45 0v795h197v-342l284 342h234l-310 -355l331 -440h-229l-228 324l-82 -86v-238h-197v0z" />
    <glyph glyph-name="L" unicode="L" horiz-adv-x="647" 
d="M622 151v-150q-149 0 -288.5 -0.5t-288.5 -0.5v795h203v-644h374z" />
    <glyph glyph-name="M" unicode="M" horiz-adv-x="962" 
d="M715 0v478l-182 -354h-104l-181 354v-478h-203v795h228l208 -441l209 441h227v-795h-202v0z" />
    <glyph glyph-name="N" unicode="N" horiz-adv-x="804" 
d="M759 795v-795h-232l-278 549v-549h-204v795h241l270 -532v532h203z" />
    <glyph glyph-name="O" unicode="O" horiz-adv-x="898" 
d="M449 800q95 0 170 -32t127 -86.5t79.5 -128t27.5 -157.5q0 -91 -30 -165.5t-83.5 -127.5t-127.5 -82t-163 -29q-100 0 -175.5 32t-126.5 86.5t-76.5 128t-25.5 157.5t28 157.5t80.5 128t127.5 86.5t168 32zM449 148q46 0 83 18t62 50.5t38.5 78.5t13.5 102q0 52 -11.5 97
t-35.5 79t-61 53.5t-89 19.5t-89.5 -20t-61.5 -53.5t-35.5 -79t-11.5 -96.5t12 -96.5t36 -79.5t61.5 -53.5t88.5 -19.5z" />
    <glyph glyph-name="P" unicode="P" horiz-adv-x="740" 
d="M45 0v795h373q63 0 114 -21t87 -57t55.5 -85t19.5 -106q0 -56 -21 -105t-57.5 -86t-86 -58t-105.5 -21h-176v-256h-203zM248 397h150q23 0 41.5 12t32 30.5t20.5 41.5t7 45t-9 44.5t-24 40.5t-34.5 29.5t-40.5 11.5h-143v-255z" />
    <glyph glyph-name="Q" unicode="Q" horiz-adv-x="902" 
d="M857 0h-190l-41 44q-38 -26 -81 -39t-96 -13q-100 0 -175.5 32t-126.5 86.5t-76.5 128t-25.5 157.5t28 157.5t80.5 128t127.5 86.5t168 32q95 0 170 -32t127 -86.5t79.5 -128t27.5 -157.5q0 -85 -31.5 -151.5t-79.5 -116.5zM449 148q40 0 74 14l-130 146h191l38 -43
q24 55 24 132q0 52 -11.5 97t-35.5 79t-61 53.5t-89 19.5t-89.5 -20t-61.5 -53.5t-35.5 -79t-11.5 -96.5t12 -96.5t36 -79.5t61.5 -53.5t88.5 -19.5z" />
    <glyph glyph-name="R" unicode="R" horiz-adv-x="789" 
d="M769 0h-231l-169 257h-115v-257h-209v795h385q65 0 118.5 -21t91.5 -57t58.5 -85t20.5 -106q0 -81 -43.5 -145.5t-115.5 -97.5zM254 397h155q24 0 43.5 12t33.5 30.5t21.5 41.5t7.5 45t-9 44.5t-25 40.5t-36.5 29.5t-43.5 11.5h-147v-255z" />
    <glyph glyph-name="S" unicode="S" horiz-adv-x="817" 
d="M414 -8q-67 0 -131 16.5t-115.5 47.5t-84.5 75t-38 98l188 23q4 -30 22 -50.5t43.5 -33t56.5 -18.5t61 -6q69 0 107 25t38 58q0 29 -21.5 47.5t-56.5 31t-79.5 22t-91.5 20.5t-91.5 26t-79.5 38t-56.5 57t-21.5 84q0 72 32 119t81.5 75t110.5 39.5t118 11.5
q74 0 135 -15.5t105.5 -43.5t71.5 -67.5t33 -87.5l-190 -23q-2 3 -8 18.5t-22.5 32.5t-47.5 30.5t-83 13.5q-54 0 -89.5 -18t-35.5 -50q0 -29 21.5 -47t56.5 -31t79.5 -23t91.5 -21.5t91.5 -27t79.5 -39.5t56.5 -59.5t21.5 -86.5t-19 -98t-61.5 -83t-111 -58t-166.5 -22z
" />
    <glyph glyph-name="T" unicode="T" horiz-adv-x="759" 
d="M734 795v-150h-253v-645h-204v645h-252v150h709v0z" />
    <glyph glyph-name="U" unicode="U" horiz-adv-x="851" 
d="M806 795v-407q0 -82 -24.5 -154t-72.5 -126t-119.5 -85t-164.5 -31q-95 0 -166.5 31t-119 85t-71 126t-23.5 154v407h195v-407q0 -56 14 -98t39 -70t59 -42t73 -14q40 0 74 14.5t59 43t39 70.5t14 96v407h195z" />
    <glyph glyph-name="V" unicode="V" horiz-adv-x="879" 
d="M247 795l194 -564l190 564h218l-318 -795h-181l-320 795h217v0z" />
    <glyph glyph-name="W" unicode="W" horiz-adv-x="1311" 
d="M383 794h184l87 -255l90 255h183l-149 -370l86 -214l207 585h220l-340 -795h-169l-127 311l-127 -311h-168l-340 795h218l209 -585l83 214l-147 370v0z" />
    <glyph glyph-name="X" unicode="X" horiz-adv-x="877" 
d="M255 795l184 -274l184 274h209l-291 -403l287 -392h-214l-175 263l-174 -263h-216l287 392l-291 403h210v0z" />
    <glyph glyph-name="Y" unicode="Y" horiz-adv-x="833" 
d="M237 795l178 -365l181 365h217l-303 -524v-271h-191v273l-299 522h217v0z" />
    <glyph glyph-name="Z" unicode="Z" horiz-adv-x="749" 
d="M30 135l427 510h-416v150h659v-136l-422 -509h426v-150h-674v135v0z" />
    <glyph glyph-name="bracketleft" unicode="[" horiz-adv-x="284" 
d="M45 -55v896h194v-121h-54v-654h54v-121h-194v0z" />
    <glyph glyph-name="backslash" unicode="\" horiz-adv-x="728" 
d="M226 789l457 -789h-196l-458 789h197v0z" />
    <glyph glyph-name="bracketright" unicode="]" horiz-adv-x="284" 
d="M45 -55v121h54v654h-54v121h194v-896h-194v0z" />
    <glyph glyph-name="asciicircum" unicode="^" horiz-adv-x="591" 
d="M41 494l199 377h107l199 -377h-125l-127 238l-131 -238h-122v0z" />
    <glyph glyph-name="underscore" unicode="_" horiz-adv-x="430" 
d="M385 0h-340v125h340v-125v0z" />
    <glyph glyph-name="grave" unicode="`" horiz-adv-x="833" 
 />
    <glyph glyph-name="a" unicode="a" horiz-adv-x="728" 
d="M598 163q0 -20 10.5 -29.5t24.5 -11.5t28 2t22 10v-106q-12 -10 -29 -18q-14 -7 -35.5 -12.5t-47.5 -5.5q-39 0 -65.5 12.5t-43 29t-24.5 34t-11 26.5q-12 -29 -38 -51q-22 -20 -60.5 -35.5t-98.5 -15.5q-47 0 -81.5 12.5t-57.5 34.5t-34.5 51.5t-11.5 64.5q0 49 21 79
t49.5 48t56.5 25.5t42 11.5q20 5 36.5 9t37.5 8.5t51.5 10.5t78.5 14q0 40 -20.5 68.5t-66.5 28.5q-40 0 -62.5 -23.5t-26.5 -59.5q-45 2 -87.5 8t-87.5 8q5 45 25.5 83t54 66.5t80.5 44.5t106 16q80 0 131.5 -19.5t81 -49t41 -64.5t11.5 -66v-239zM230 181q0 -23 13 -37
t32.5 -19t43 -0.5t43.5 18.5q33 23 44 51t11 72q-30 -8 -63 -12.5t-60.5 -11.5t-45.5 -20.5t-18 -40.5z" />
    <glyph glyph-name="b" unicode="b" horiz-adv-x="733" 
d="M688 297q0 -63 -17 -119t-50 -97t-80.5 -65t-107.5 -24q-69 0 -120.5 30.5t-77.5 79.5v-102h-190v795h190v-311q28 55 80 86.5t118 31.5q60 0 107.5 -24t80.5 -65.5t50 -97t17 -118.5zM499 289q0 33 -9 62t-25.5 50.5t-41.5 34t-56 12.5t-54.5 -12.5t-40 -33.5
t-25.5 -49.5t-9 -61.5v-2v-3q0 -33 8 -61.5t24 -49.5t40 -33t57 -12q31 0 56 12.5t41.5 34t25.5 50.5t9 62z" />
    <glyph glyph-name="c" unicode="c" horiz-adv-x="669" 
d="M350 136q54 0 85 32t39 87l160 -12q-7 -54 -28 -100t-58 -79.5t-89 -52.5t-121 -19q-62 0 -116.5 20.5t-95 59.5t-64 95.5t-23.5 128.5q0 68 23.5 124.5t64 96.5t95.5 62t119 22q66 0 117 -18.5t87.5 -51.5t58.5 -78.5t30 -98.5l-159 -18q-8 54 -37 88t-86 34
q-61 0 -92.5 -43.5t-31.5 -117.5q0 -76 31.5 -118.5t90.5 -42.5z" />
    <glyph glyph-name="d" unicode="d" horiz-adv-x="729" 
d="M298 -8q-60 0 -107.5 24t-79.5 65.5t-49 97t-17 118.5t17 118.5t49 97t79.5 65.5t107.5 24q66 0 117 -31t79 -87v311h190v-795h-190v103q-26 -49 -76.5 -80t-119.5 -31zM367 448q-32 0 -56.5 -12.5t-41 -34t-25.5 -50.5t-9 -62t9 -62t25.5 -50.5t41 -34t56.5 -12.5
q33 0 57 12t40 33t24 49.5t8 61.5v3v2q0 33 -9 61.5t-25.5 49.5t-40.5 33.5t-54 12.5zM494 289v2v-5v3z" />
    <glyph glyph-name="e" unicode="e" horiz-adv-x="674" 
d="M228 268q6 -63 37 -97t84 -34t80.5 22t34.5 53l158 -20q-12 -44 -35 -81t-58.5 -63.5t-83 -41t-107.5 -14.5q-62 0 -116.5 21t-95 60t-64 95.5t-23.5 127.5q0 69 23.5 125t64 96.5t95.5 62.5t119 22q75 0 130.5 -24t92.5 -65t55.5 -97t18.5 -119q0 -8 -0.5 -15t-0.5 -14
h-409zM350 459q-45 0 -73 -23.5t-41 -66.5h230q-12 41 -40 65.5t-76 24.5z" />
    <glyph glyph-name="f" unicode="f" horiz-adv-x="452" 
d="M276 579v-74h127v-118h-128l-2 -108t-1.5 -105t-1 -95.5t-0.5 -78.5h-189v387h-66v118h66v124q3 46 22 83q8 15 21 30t32 27t44.5 19t59.5 7q32 0 68 -8q31 -7 71 -21.5t82 -42.5l-47 -116q-23 11 -43.5 20t-49.5 9t-47 -13.5t-18 -43.5z" />
    <glyph glyph-name="g" unicode="g" horiz-adv-x="705" 
d="M399 159q131 0 206 -45t75 -134q0 -46 -28 -80.5t-74.5 -58t-106 -35t-122.5 -11.5q-74 0 -130.5 12t-95 32.5t-58.5 46.5t-20 54t12 44.5t26 25.5q17 11 39 15q-18 8 -31 22q-12 12 -21.5 31.5t-9.5 50.5q0 29 9.5 50t24.5 36.5t34.5 26t39.5 18.5q-39 26 -62 63t-23 84
q0 48 21 84.5t57 60.5t84.5 36.5t103.5 12.5q63 0 112.5 -14.5t86.5 -46.5q2 8 5 16t8 16q13 21 31 34.5t35.5 21t32 10.5t20.5 4v-71.5t-1 -71.5q-9 2 -28.5 1.5t-39.5 -14.5q-4 -2 -7 -5l-6 -6q8 -17 12 -31.5t4 -36.5q0 -46 -20.5 -82t-56 -61.5t-84 -39t-104.5 -13.5
q-33 0 -58 4.5t-49 10.5q-2 0 -8.5 -2t-13.5 -5.5t-12.5 -9t-5.5 -13.5q0 -21 45 -29t152 -8zM349 499q-35 0 -55.5 -27t-20.5 -66t19 -66.5t57 -27.5q34 0 54.5 27.5t20.5 66.5t-20 66t-55 27zM352 -102q78 0 120.5 16t42.5 39t-44.5 39t-118.5 16q-80 0 -121 -9t-41 -46
q0 -23 39 -39t123 -16z" />
    <glyph glyph-name="h" unicode="h" horiz-adv-x="667" 
d="M622 0h-186v332q0 20 -5 40t-16.5 35.5t-30 25.5t-46.5 10q-21 0 -39.5 -7t-33 -20.5t-23 -33t-8.5 -44.5v-338h-189v795h189v-312q4 23 20 44.5t40 38t54 26t62 9.5q42 0 80.5 -15t67.5 -43.5t46.5 -70t17.5 -94.5v-378z" />
    <glyph glyph-name="i" unicode="i" horiz-adv-x="299" 
d="M257 838v-163h-216v163h216zM244 0h-189v594h189v-594v0z" />
    <glyph glyph-name="j" unicode="j" horiz-adv-x="428" 
d="M382 -40q-1 -47 -19 -83q-8 -15 -20.5 -30t-32 -26.5t-46 -18.5t-61.5 -7t-68 5q-28 5 -56 15.5t-44 30.5v122q12 -7 27 -12q13 -5 30.5 -8t38.5 -3t33 7.5t19 17.5q7 11 10 26v598h189v-634zM395 675h-216v163h216v-163z" />
    <glyph glyph-name="k" unicode="k" horiz-adv-x="687" 
d="M439 0l-148 218l-47 -49v-169h-189v795h189v-422l181 221h219l-225 -264l236 -330h-216v0z" />
    <glyph glyph-name="l" unicode="l" horiz-adv-x="421" 
d="M56 795h189v-60t0.5 -98.5t1 -120.5t1 -125.5t0.5 -114.5v-86q0 -16 6 -25.5t15 -14t19 -6t19 -1.5q16 0 33 3t31 8q17 5 32 12v-122q-27 -21 -56.5 -31.5t-54.5 -15.5q-29 -5 -57 -5q-35 0 -61.5 7t-46 18.5t-32 26.5t-20.5 31q-18 36 -19 83v637z" />
    <glyph glyph-name="m" unicode="m" horiz-adv-x="1032" 
d="M987 379v-379h-187v333q0 54 -25 83t-67 29q-20 0 -37 -8.5t-29.5 -22.5t-19.5 -33t-7 -41v-340h-189v333q0 46 -24.5 79t-69.5 33t-71.5 -30.5t-25.5 -74.5v-340h-190v594h191v-93q4 12 16.5 29.5t33.5 33t50 27t67 11.5q36 0 63.5 -8.5t49 -24.5t38 -37.5t30.5 -48.5
q26 53 73 86t123 33q42 0 79.5 -17t66 -47t45 -70.5t16.5 -88.5z" />
    <glyph glyph-name="n" unicode="n" horiz-adv-x="670" 
d="M625 0h-187v339q1 20 -4 40t-17 36t-31 26t-46 10q-42 0 -73.5 -27t-31.5 -78v-346h-190v594h190l-1 -103q9 24 25.5 44.5t39.5 35t51.5 23t60.5 8.5q42 0 81 -14t68.5 -41t47 -67.5t17.5 -94.5v-385z" />
    <glyph glyph-name="o" unicode="o" horiz-adv-x="672" 
d="M341 601q75 0 130.5 -24t92.5 -65t55.5 -96.5t18.5 -119.5t-18 -119.5t-55 -96.5t-93.5 -64.5t-133.5 -23.5q-62 0 -116.5 20.5t-95 59.5t-64 95.5t-23.5 128.5q0 68 23.5 124.5t64 96.5t95.5 62t119 22zM336 136q63 0 95 44t32 117q0 34 -7 63t-22 51t-39 34.5t-58 12.5
q-61 0 -92 -43t-31 -118q0 -76 31 -118.5t91 -42.5z" />
    <glyph glyph-name="p" unicode="p" horiz-adv-x="717" 
d="M443 602q60 0 107.5 -24t79.5 -65.5t49 -97t17 -118.5t-17 -118.5t-49 -97t-79.5 -65.5t-107.5 -24q-67 0 -118.5 31.5t-79.5 86.5v-315h-190v799h190v-102q26 49 77.5 79.5t120.5 30.5zM375 146q31 0 56 12.5t41.5 34t25.5 50.5t9 62t-9 62t-25.5 50.5t-41.5 34
t-56 12.5q-33 0 -57 -12t-40 -33t-24 -49.5t-8 -61.5v-3v-2q0 -33 9 -61.5t25.5 -49.5t40.5 -33.5t54 -12.5zM245 308v-5v2v3z" />
    <glyph glyph-name="q" unicode="q" horiz-adv-x="717" 
d="M21 297q0 63 17 118.5t49 97t79.5 65.5t107.5 24q69 0 120.5 -30.5t77.5 -79.5v102h190v-799h-190v315q-28 -55 -80 -86.5t-118 -31.5q-60 0 -107.5 24t-79.5 65.5t-49 97t-17 118.5zM209 305q0 -33 9 -62t25.5 -50.5t41 -34t56.5 -12.5q31 0 54.5 12.5t40 33.5
t25.5 49.5t9 61.5v2v3q0 33 -8 61.5t-24 49.5t-40 33t-57 12q-32 0 -56.5 -12.5t-41 -34t-25.5 -50.5t-9 -62zM472 308v-5v2v3z" />
    <glyph glyph-name="r" unicode="r" horiz-adv-x="481" 
d="M469 440q-7 1 -24 1.5t-38 -1t-44.5 -6t-42.5 -13.5q-31 -15 -50 -34t-27 -30v-357h-189v594h184v-119q5 14 20.5 41.5t49.5 51.5q26 19 52.5 26t49 7.5t38.5 -2.5t21 -4v-155z" />
    <glyph glyph-name="s" unicode="s" horiz-adv-x="628" 
d="M591 196q0 -53 -22 -91.5t-59 -63.5t-87 -37t-105 -12q-63 0 -115 16.5t-88.5 44t-57 62.5t-20.5 71l159 19q0 -25 13.5 -40.5t33 -24t40.5 -11.5t36 -3q13 0 29.5 2t31 7t24.5 15t10 25q0 23 -27 36t-67 22.5t-87.5 19.5t-87.5 28.5t-67 49.5t-27 81q0 33 12.5 66.5
t42.5 61t80 45t125 17.5q69 0 119 -16.5t82.5 -42.5t47.5 -57t15 -61l-160 -20q0 4 -3 15.5t-14 24t-32.5 22t-58.5 9.5q-39 0 -59 -11.5t-20 -27.5q0 -23 27 -35t67 -22t87.5 -21t87.5 -30t67 -50.5t27 -82.5z" />
    <glyph glyph-name="t" unicode="t" horiz-adv-x="477" 
d="M24 454v113q49 -2 78 25t45 61q18 40 26 90h116v-149h152v-140h-152v-260q0 -15 6 -26q5 -10 17.5 -17.5t37.5 -7.5q21 0 38.5 3t30.5 8q15 5 28 12v-122q-19 -20 -47.5 -30.5t-55.5 -15.5q-32 -5 -65 -6q-35 0 -61.5 7t-46 18.5t-32 26.5t-20.5 31q-18 36 -19 83v296
h-76z" />
    <glyph glyph-name="u" unicode="u" horiz-adv-x="682" 
d="M51 594h185v-341q-1 -20 4 -40t17 -36t31 -25.5t46 -9.5q20 0 38.5 7t33 20.5t23 32.5t8.5 44v348h189v-594h-188v102q-9 -24 -25.5 -44t-39 -34.5t-51 -23t-59.5 -8.5q-42 0 -80.5 13.5t-67.5 40.5t-46.5 67.5t-17.5 93.5v387z" />
    <glyph glyph-name="v" unicode="v" horiz-adv-x="688" 
d="M239 0l-214 594h191l124 -426l123 426h190l-214 -594h-200v0z" />
    <glyph glyph-name="w" unicode="w" horiz-adv-x="1013" 
d="M815 594h183l-250 -594h-151l-91 244l-90 -244h-151l-250 594h182l157 -427l55 162l-106 265h146l57 -177l57 177h147l-107 -265l56 -162l156 427v0z" />
    <glyph glyph-name="x" unicode="x" horiz-adv-x="702" 
d="M229 594l111 -168l12 -29l10 29l111 168h191l-212 -298l215 -296h-190l-115 166l-10 30l-11 -30l-115 -166h-191l215 296l-210 298h189v0z" />
    <glyph glyph-name="y" unicode="y" horiz-adv-x="668" 
d="M69 -48q1 -1 9.5 -5.5t22 -8t30.5 -4t36 7.5q27 11 44.5 34.5t20.5 53.5l-217 564h190l121 -418l121 418h191l-246 -648q-10 -28 -28.5 -56.5t-45.5 -51t-62 -37t-79 -14.5q-31 -1 -60 5.5t-48 16.5v143z" />
    <glyph glyph-name="z" unicode="z" horiz-adv-x="617" 
d="M55 109l302 359h-294v126h498v-109l-301 -359h308v-126h-513v109v0z" />
    <glyph glyph-name="braceleft" unicode="{" horiz-adv-x="337" 
d="M249 725q-13 -14 -14 -27t-1 -32v-117q0 -60 -21 -96q-11 -17 -24 -32.5t-37 -27.5q24 -12 37 -27.5t24 -32.5q21 -36 21 -96v-117q0 -19 1 -32t14 -27q9 -9 23.5 -13.5t19.5 -5.5v-97h-11t-13 1t-25 3.5t-36.5 9.5t-39.5 20t-34 36q-6 9 -14.5 30t-7.5 54v145v15
t-2.5 22t-9 25t-19.5 24q-10 8 -19 11t-16 4v96q7 1 16 4.5t19 11.5q13 10 19.5 23.5t9 26t2.5 22v13.5v145q-1 33 7.5 54t14.5 30q14 22 34 35.5t39.5 20.5t36.5 9.5t25 3.5t13 1h11v-97q-5 -1 -19.5 -5t-23.5 -14z" />
    <glyph glyph-name="bar" unicode="|" horiz-adv-x="222" 
d="M177 -108h-132v972h132v-972v0z" />
    <glyph glyph-name="braceright" unicode="}" horiz-adv-x="337" 
d="M88 725q-9 10 -23.5 14t-19.5 5v97h11t13 -1t24.5 -3.5t36.5 -9.5t40 -20.5t34 -35.5q5 -9 13.5 -30t8.5 -54v-145v-13.5t2.5 -22t9 -26t19.5 -23.5q10 -8 19 -11.5t16 -4.5v-96q-7 -1 -16 -4t-19 -11q-13 -11 -19.5 -24t-9 -25t-2.5 -22v-15v-145q0 -33 -8.5 -54
t-13.5 -30q-14 -23 -34 -36t-40 -20t-36.5 -9.5t-24.5 -3.5t-13.5 -1h-10.5v97q4 1 19 5.5t24 13.5q13 14 14 27t1 32v117q0 60 21 96q10 17 23 32.5t37 27.5q-24 12 -37 27.5t-24 32.5q-20 37 -20 96v117q0 19 -1 32t-14 27z" />
    <glyph glyph-name="asciitilde" unicode="~" horiz-adv-x="833" 
 />
    <glyph glyph-name="sterling" unicode="&#xa3;" horiz-adv-x="559" 
d="M45 435h74q-15 25 -25 45t-16 39t-8.5 38.5t-2.5 43.5q0 48 16.5 85t44.5 63t66 39.5t82 13.5t81.5 -11t67 -26.5t51 -32t33.5 -26.5l-55 -113q-15 8 -28.5 17.5t-29 17t-34 12.5t-42.5 5q-31 0 -52 -20.5t-21 -64.5q0 -37 12.5 -65t24.5 -60h197v-121h-174
q0 -17 -1.5 -35.5t-9 -38.5t-22.5 -43t-41 -50q26 8 52 13t57 5q26 0 47 -5t40.5 -9t39 -5t41.5 7l29 -129q-18 -11 -38.5 -18.5t-55.5 -7.5q-26 0 -50 5t-48.5 10.5t-51.5 10.5t-58 5q-35 0 -74.5 -7.5t-86.5 -24.5l-31 141q19 16 37.5 34.5t32.5 40t22.5 46.5t8.5 55h-101
v121z" />
    <glyph glyph-name="copyright" unicode="&#xa9;" horiz-adv-x="864" 
d="M440 260q48 0 75.5 26.5t35.5 73.5l143 -11q-6 -45 -25 -83.5t-52 -66.5t-80 -44t-108 -16q-56 0 -104.5 17.5t-84.5 50t-57 79.5t-21 107q0 57 21 104.5t57 81t85.5 52t106.5 18.5q58 0 104 -15.5t78.5 -43t52 -65.5t26.5 -82l-142 -15q-6 44 -32.5 72.5t-77.5 28.5
q-54 0 -82 -36t-28 -99t28 -98.5t81 -35.5zM432 796q86 0 162 -31.5t132.5 -86t89.5 -128t33 -156.5t-33 -156.5t-89.5 -128t-132.5 -86t-162 -31.5q-87 0 -163 31.5t-132.5 86t-89 128t-32.5 156.5t32.5 156.5t89 128t132.5 86t163 31.5zM431 58q72 0 135 26.5t110.5 72
t74.5 106.5t27 130t-27 130t-74.5 106.5t-110.5 72t-135 26.5t-135 -26.5t-110.5 -72t-74.5 -106.5t-27 -130t27 -130t74.5 -106.5t110.5 -72t135 -26.5z" />
    <glyph glyph-name="guillemotleft" unicode="&#xab;" horiz-adv-x="623" 
d="M310 299l170 243h147l-170 -243l170 -243h-147zM45 299l170 243h147l-170 -243l170 -243h-147z" />
    <glyph glyph-name="registered" unicode="&#xae;" horiz-adv-x="864" 
d="M654 173h-129l-94 147h-66v-147h-116v457h216q36 0 66 -12t51.5 -33t33 -49t11.5 -61q0 -46 -25 -83t-64 -56zM365 401h88q13 0 24 7t19 17.5t12 24t4 25.5q0 13 -5 26t-14 23.5t-20.5 17t-23.5 6.5h-84v-147zM432 796q86 0 162 -31.5t132.5 -86t89.5 -128t33 -156.5
t-33 -156.5t-89.5 -128t-132.5 -86t-162 -31.5t-162 31.5t-132.5 86t-89.5 128t-33 156.5t33 156.5t89.5 128t132.5 86t162 31.5zM431 58q72 0 135 26.5t110.5 72t74.5 106.5t27 130t-27 130t-74.5 106.5t-110.5 72t-135 26.5t-135 -26.5t-110.5 -72t-74.5 -106.5t-27 -130
t27 -130t74.5 -106.5t110.5 -72t135 -26.5z" />
    <glyph glyph-name="guillemotright" unicode="&#xbb;" horiz-adv-x="623" 
d="M362 299l-170 -243h-147l170 243l-170 243h147l170 -243v0zM627 299l-170 -243h-147l170 243l-170 243h147l170 -243v0z" />
    <glyph glyph-name="questiondown" unicode="&#xbf;" horiz-adv-x="579" 
d="M218 531h169q0 -57 -13.5 -94.5t-33 -63.5t-43 -45t-43 -38.5t-33 -43.5t-13.5 -60q0 -10 6 -22t17 -22t27 -16.5t37 -6.5q15 0 32 6.5t31 19.5t23 32t10 44l168 -20q-9 -53 -33.5 -92t-60 -65t-81 -39t-96.5 -13q-63 0 -110 17t-79 45t-48 64t-16 75q0 52 13.5 85.5
t34 57t44 41t44 38t34 47.5t13.5 69zM219 795h167v-174h-167v174z" />
    <glyph glyph-name="germandbls" unicode="&#xdf;" horiz-adv-x="626" 
d="M276 163q60 0 91.5 29t31.5 70q0 40 -30 69.5t-94 29.5v159q47 0 66.5 17.5t19.5 48.5q0 28 -17 46t-49 18q-31 0 -45.5 -19.5t-14.5 -47.5v-583h-190v590q0 48 18 87t50 66.5t76.5 42t97.5 14.5q54 0 97.5 -14.5t75 -39.5t48.5 -59t17 -73q0 -37 -9 -63t-22.5 -44.5
t-29.5 -31t-29 -21.5q30 -10 57 -27.5t46.5 -44t31 -62t11.5 -80.5q0 -51 -14.5 -95t-50 -76t-94 -50.5t-146.5 -18.5v163z" />
    <glyph glyph-name="fraction" unicode="&#x2044;" horiz-adv-x="300" 
d="M529 989l-561 -789h-196l560 789h197v0z" />
    <glyph glyph-name="Euro" unicode="&#x20ac;" horiz-adv-x="902" 
d="M882 299q-13 -66 -42 -122.5t-76 -97.5t-113.5 -64t-155.5 -23q-63 0 -122 16.5t-108 49t-86 80.5t-57 112h-102l44 105h38q-1 10 -1 19v19v2h-81l44 106h49q15 64 48.5 118t83 93.5t114 62t141.5 22.5q79 0 144.5 -21.5t114 -60.5t80 -95t42.5 -125l-176 -20
q-8 36 -23 67t-38 53.5t-55.5 35t-74.5 12.5q-40 0 -70.5 -11.5t-52 -31t-36 -45.5t-22.5 -54h286l-44 -106h-255v-20.5t1 -19.5h243l-44 -105h-171q24 -50 66 -76t97 -26q77 0 124.5 43t67.5 122z" />
    <glyph glyph-name="trademark" unicode="&#x2122;" horiz-adv-x="764" 
d="M652 484v187l-79 -138h-45l-78 138v-187h-88v311h99l90 -172l90 172h98v-311h-87v0zM331 794v-57h-109v-253h-88v253h-109v57h306v0z" />
    </font>
</defs>
</svg>
